<?xml version="1.0" standalone="no"?>
<!DOCTYPE svg PUBLIC "-//W3C//DTD SVG 1.1//EN" "http://www.w3.org/Graphics/SVG/1.1/DTD/svg11.dtd" >
<svg xmlns="http://www.w3.org/2000/svg">
<metadata>Generated by IcoMoon</metadata>
<defs>
<font id="icomoon" horiz-adv-x="1024">
<font-face units-per-em="1024" ascent="960" descent="-64" />
<missing-glyph horiz-adv-x="1024" />
<glyph unicode="&#x20;" horiz-adv-x="512" d="" />
<glyph unicode="&#xe900;" glyph-name="Academic-cap" d="M501.333 82.453c-7.68 0-15.36 2.56-21.333 8.107-35.413 32-75.093 58.027-117.333 77.653v-51.2c0-17.493-14.507-32-32-32s-32 14.507-32 32v75.947c-29.44 8.96-60.16 14.933-91.733 17.92-14.507 1.28-26.027 12.373-28.587 26.453-5.12 30.293-8.107 61.867-8.107 93.013 0 59.733 9.387 118.187 28.587 174.080l-96.853 53.76c-10.24 5.547-16.64 16.213-16.64 28.16s6.4 22.187 16.64 28.16l384 213.333c9.813 5.547 21.333 5.547 31.147 0l384-213.333c10.24-5.547 16.64-16.213 16.64-28.16s-6.4-22.187-16.64-28.16l-97.28-54.187c18.773-55.893 28.587-114.347 28.587-174.080 0-31.147-2.56-62.72-8.107-93.013-2.56-14.080-14.080-25.173-28.587-26.453-101.973-9.813-196.267-51.627-273.067-119.893-5.973-5.547-13.653-8.107-21.333-8.107zM362.667 237.76c49.493-20.053 96.427-47.36 138.667-81.493 76.373 61.44 166.4 101.12 263.253 114.773 2.56 19.627 3.413 39.253 3.413 58.88 0 48.64-7.253 96.427-21.333 142.507l-229.547-127.573c-9.813-5.547-21.333-5.547-31.147 0l-123.307 68.267v-175.36zM238.080 271.040c20.48-2.987 40.533-6.827 60.587-12.373v177.92c0 3.84 0.853 7.68 1.707 11.093l-44.373 24.747c-14.080-46.080-21.333-93.44-21.333-142.507 0-19.627 1.28-39.253 3.413-58.88zM424.107 451.947l77.227-42.667 247.040 137.387c0 0 0 0 0.427 0l70.4 39.253-317.867 177.067-318.293-176.64 70.4-39.253c0 0 0 0 0.427 0l104.107-58.027 127.573 70.827c15.36 8.533 34.987 2.987 43.52-12.373s2.987-34.987-12.373-43.52l-92.587-51.627v-0.427z" />
<glyph unicode="&#xe901;" glyph-name="Adjustments" d="M256 821.333c17.673 0 32-14.327 32-32v-399.083c49.248-13.931 85.333-59.209 85.333-112.917s-36.085-98.987-85.333-112.917v-57.749c0-17.673-14.327-32-32-32s-32 14.327-32 32v57.749c-49.248 13.931-85.333 59.209-85.333 112.917s36.085 98.987 85.333 112.917v399.083c0 17.673 14.327 32 32 32zM512 821.333c17.673 0 32-14.327 32-32v-57.75c49.25-13.929 85.333-59.209 85.333-112.916s-36.083-98.987-85.333-112.917v-399.083c0-17.673-14.327-32-32-32s-32 14.327-32 32v399.083c-49.25 13.931-85.333 59.209-85.333 112.917s36.083 98.988 85.333 112.916v57.75c0 17.673 14.327 32 32 32zM768 821.333c17.673 0 32-14.327 32-32v-399.083c49.25-13.931 85.333-59.209 85.333-112.917s-36.083-98.987-85.333-112.917v-57.749c0-17.673-14.327-32-32-32s-32 14.327-32 32v57.749c-49.25 13.931-85.333 59.209-85.333 112.917s36.083 98.987 85.333 112.917v399.083c0 17.673 14.327 32 32 32zM512 672c-29.457 0-53.333-23.878-53.333-53.333s23.876-53.333 53.333-53.333c29.457 0 53.333 23.878 53.333 53.333s-23.876 53.333-53.333 53.333zM256 330.667c-29.455 0-53.333-23.876-53.333-53.333s23.878-53.333 53.333-53.333c29.455 0 53.333 23.876 53.333 53.333s-23.878 53.333-53.333 53.333zM768 330.667c-29.457 0-53.333-23.876-53.333-53.333s23.876-53.333 53.333-53.333c29.457 0 53.333 23.876 53.333 53.333s-23.876 53.333-53.333 53.333z" />
<glyph unicode="&#xe902;" glyph-name="Annotation" d="M96 704c0 64.801 52.532 117.333 117.333 117.333h597.333c64.802 0 117.333-52.532 117.333-117.333v-341.333c0-64.802-52.531-117.333-117.333-117.333h-114.743l-161.297-161.293c-12.497-12.497-32.755-12.497-45.252 0l-161.295 161.293h-114.745c-64.801 0-117.333 52.531-117.333 117.333v341.333zM213.333 757.333c-29.455 0-53.333-23.878-53.333-53.333v-341.333c0-29.457 23.878-53.333 53.333-53.333h128c8.487 0 16.626-3.371 22.627-9.374l148.039-148.036 148.041 148.036c5.999 6.003 14.14 9.374 22.626 9.374h128c29.457 0 53.333 23.876 53.333 53.333v341.333c0 29.455-23.876 53.333-53.333 53.333h-597.333zM266.667 618.667c0 17.673 14.327 32 32 32h426.667c17.673 0 32-14.327 32-32s-14.327-32-32-32h-426.667c-17.673 0-32 14.327-32 32zM266.667 448c0 17.673 14.327 32 32 32h170.667c17.673 0 32-14.327 32-32s-14.327-32-32-32h-170.667c-17.673 0-32 14.327-32 32z" />
<glyph unicode="&#xe903;" glyph-name="Archive" d="M96 704c0 64.801 52.532 117.333 117.333 117.333h597.333c64.802 0 117.333-52.532 117.333-117.333 0-53.708-36.083-98.988-85.333-112.916v-399.084c0-64.802-52.531-117.333-117.333-117.333h-426.667c-64.801 0-117.333 52.531-117.333 117.333v399.084c-49.248 13.929-85.333 59.209-85.333 112.916zM245.333 586.667v-394.667c0-29.457 23.878-53.333 53.333-53.333h426.667c29.457 0 53.333 23.876 53.333 53.333v394.667h-533.333zM213.333 757.333c-29.455 0-53.333-23.878-53.333-53.333s23.878-53.333 53.333-53.333h597.333c29.457 0 53.333 23.878 53.333 53.333s-23.876 53.333-53.333 53.333h-597.333zM394.667 448c0 17.673 14.327 32 32 32h170.667c17.673 0 32-14.327 32-32s-14.327-32-32-32h-170.667c-17.673 0-32 14.327-32 32z" />
<glyph unicode="&#xe904;" glyph-name="Arrow-circle-down" d="M512 800c-194.404 0-352-157.596-352-352 0-194.402 157.596-352 352-352 194.402 0 352 157.598 352 352 0 194.404-157.598 352-352 352zM96 448c0 229.751 186.249 416 416 416s416-186.249 416-416c0-229.751-186.249-416-416-416s-416 186.249-416 416zM512 650.667c17.673 0 32-14.327 32-32v-264.077l73.374 73.37c12.497 12.497 32.755 12.497 45.252 0s12.497-32.755 0-45.252l-128-128c-12.497-12.497-32.755-12.497-45.252 0l-128.001 128c-12.497 12.497-12.497 32.755 0 45.252s32.758 12.497 45.255 0l73.373-73.37v264.077c0 17.673 14.327 32 32 32z" />
<glyph unicode="&#xe905;" glyph-name="Arrow-circle-left" d="M512 800c-194.404 0-352-157.596-352-352 0-194.402 157.596-352 352-352 194.402 0 352 157.598 352 352 0 194.404-157.598 352-352 352zM96 448c0 229.751 186.249 416 416 416s416-186.249 416-416c0-229.751-186.249-416-416-416s-416 186.249-416 416zM491.959 598.627c12.497-12.497 12.497-32.758 0-45.255l-73.371-73.373h264.079c17.673 0 32-14.327 32-32s-14.327-32-32-32h-264.079l73.371-73.374c12.497-12.497 12.497-32.755 0-45.252s-32.755-12.497-45.252 0l-128.001 128c-12.497 12.497-12.497 32.755 0 45.252l128.001 128.001c12.497 12.497 32.755 12.497 45.252 0z" />
<glyph unicode="&#xe906;" glyph-name="Arrow-circle-right" d="M512 800c-194.404 0-352-157.596-352-352 0-194.402 157.596-352 352-352 194.402 0 352 157.598 352 352 0 194.404-157.598 352-352 352zM96 448c0 229.751 186.249 416 416 416s416-186.249 416-416c0-229.751-186.249-416-416-416s-416 186.249-416 416zM532.041 598.627c12.497 12.497 32.755 12.497 45.252 0l128-128.001c12.497-12.497 12.497-32.755 0-45.252l-128-128c-12.497-12.497-32.755-12.497-45.252 0s-12.497 32.755 0 45.252l73.37 73.374h-264.077c-17.673 0-32 14.327-32 32s14.327 32 32 32h264.077l-73.37 73.373c-12.497 12.497-12.497 32.758 0 45.255z" />
<glyph unicode="&#xe907;" glyph-name="Arrow-circle-up" d="M512 800c-194.404 0-352-157.596-352-352 0-194.402 157.596-352 352-352 194.402 0 352 157.598 352 352 0 194.404-157.598 352-352 352zM96 448c0 229.751 186.249 416 416 416s416-186.249 416-416c0-229.751-186.249-416-416-416s-416 186.249-416 416zM480 541.412l-73.373-73.371c-12.497-12.497-32.758-12.497-45.255 0s-12.497 32.755 0 45.252l128.001 128.001c12.497 12.497 32.755 12.497 45.252 0l128-128.001c12.497-12.497 12.497-32.755 0-45.252s-32.755-12.497-45.252 0l-73.374 73.371v-264.079c0-17.673-14.327-32-32-32s-32 14.327-32 32v264.079z" />
<glyph unicode="&#xe908;" glyph-name="Arrow-down" d="M512 864c17.673 0 32-14.327 32-32v-690.743l244.041 244.036c12.497 12.497 32.755 12.497 45.252 0s12.497-32.755 0-45.252l-298.667-298.667c-5.999-6.003-14.14-9.374-22.626-9.374s-16.627 3.371-22.626 9.374l-298.668 298.667c-12.497 12.497-12.497 32.755 0 45.252s32.758 12.497 45.255 0l244.039-244.036v690.743c0 17.673 14.327 32 32 32z" />
<glyph unicode="&#xe909;" glyph-name="Arrow-left" d="M449.293 769.294c12.497-12.497 12.497-32.758 0-45.255l-244.038-244.039h690.745c17.673 0 32-14.327 32-32s-14.327-32-32-32h-690.745l244.038-244.041c12.497-12.497 12.497-32.755 0-45.252s-32.757-12.497-45.254 0l-298.667 298.667c-12.497 12.497-12.497 32.755 0 45.252l298.667 298.668c12.497 12.497 32.756 12.497 45.254 0z" />
<glyph unicode="&#xe90a;" glyph-name="Arrow-narrow-down" d="M512 864c17.673 0 32-14.327 32-32v-690.743l116.041 116.036c12.497 12.497 32.755 12.497 45.252 0s12.497-32.755 0-45.252l-170.667-170.667c-5.999-6.003-14.14-9.374-22.626-9.374s-16.627 3.371-22.626 9.374l-170.668 170.667c-12.497 12.497-12.497 32.755 0 45.252s32.758 12.497 45.255 0l116.039-116.036v690.743c0 17.673 14.327 32 32 32z" />
<glyph unicode="&#xe90b;" glyph-name="Arrow-narrow-left" d="M321.294 641.294c12.497-12.497 12.497-32.758 0-45.255l-116.039-116.039h690.745c17.673 0 32-14.327 32-32s-14.327-32-32-32h-690.745l116.039-116.041c12.497-12.497 12.497-32.755 0-45.252s-32.758-12.497-45.255 0l-170.667 170.667c-12.497 12.497-12.497 32.755 0 45.252l170.667 170.668c12.497 12.497 32.758 12.497 45.255 0z" />
<glyph unicode="&#xe90c;" glyph-name="Arrow-narrow-right" d="M702.707 641.294c12.497 12.497 32.755 12.497 45.252 0l170.667-170.668c12.497-12.497 12.497-32.755 0-45.252l-170.667-170.667c-12.497-12.497-32.755-12.497-45.252 0s-12.497 32.755 0 45.252l116.036 116.041h-690.743c-17.673 0-32 14.327-32 32s14.327 32 32 32h690.743l-116.036 116.039c-12.497 12.497-12.497 32.758 0 45.255z" />
<glyph unicode="&#xe90d;" glyph-name="Arrow-narrow-up" d="M489.374 854.627c12.497 12.497 32.755 12.497 45.252 0l170.667-170.667c12.497-12.497 12.497-32.758 0-45.255s-32.755-12.497-45.252 0l-116.041 116.039v-690.745c0-17.673-14.327-32-32-32s-32 14.327-32 32v690.745l-116.039-116.039c-12.497-12.497-32.758-12.497-45.255 0s-12.497 32.758 0 45.255l170.668 170.667z" />
<glyph unicode="&#xe90e;" glyph-name="Arrow-right" d="M574.707 769.294c12.497 12.497 32.755 12.497 45.252 0l298.667-298.668c6.003-5.999 9.374-14.14 9.374-22.626s-3.371-16.627-9.374-22.626l-298.667-298.667c-12.497-12.497-32.755-12.497-45.252 0s-12.497 32.755 0 45.252l244.036 244.041h-690.743c-17.673 0-32 14.327-32 32s14.327 32 32 32h690.743l-244.036 244.039c-12.497 12.497-12.497 32.758 0 45.255z" />
<glyph unicode="&#xe90f;" glyph-name="Arrow-up" d="M489.374 854.627c12.497 12.497 32.755 12.497 45.252 0l298.667-298.667c12.497-12.497 12.497-32.756 0-45.254s-32.755-12.497-45.252 0l-244.041 244.038v-690.745c0-17.673-14.327-32-32-32s-32 14.327-32 32v690.745l-244.039-244.038c-12.497-12.497-32.758-12.497-45.255 0s-12.497 32.757 0 45.254l298.668 298.667z" />
<glyph unicode="&#xe910;" glyph-name="Arrows-expand" d="M138.667 789.333c0 17.673 14.327 32 32 32h170.667c17.673 0 32-14.327 32-32s-14.327-32-32-32h-93.412l158.706-158.706c12.497-12.497 12.497-32.758 0-45.255s-32.758-12.497-45.255 0l-158.706 158.706v-93.412c0-17.673-14.327-32-32-32s-32 14.327-32 32v170.667zM650.667 789.333c0 17.673 14.327 32 32 32h170.667c17.673 0 32-14.327 32-32v-170.667c0-17.673-14.327-32-32-32s-32 14.327-32 32v93.412l-158.707-158.706c-12.497-12.497-32.755-12.497-45.252 0s-12.497 32.758 0 45.255l158.703 158.706h-93.41c-17.673 0-32 14.327-32 32zM406.627 342.626c12.497-12.497 12.497-32.755 0-45.252l-158.706-158.707h93.412c17.673 0 32-14.327 32-32s-14.327-32-32-32h-170.667c-17.673 0-32 14.327-32 32v170.667c0 17.673 14.327 32 32 32s32-14.327 32-32v-93.41l158.706 158.703c12.497 12.497 32.758 12.497 45.255 0zM617.374 342.626c12.497 12.497 32.755 12.497 45.252 0l158.707-158.703v93.41c0 17.673 14.327 32 32 32s32-14.327 32-32v-170.667c0-17.673-14.327-32-32-32h-170.667c-17.673 0-32 14.327-32 32s14.327 32 32 32h93.41l-158.703 158.707c-12.497 12.497-12.497 32.755 0 45.252z" />
<glyph unicode="&#xe911;" glyph-name="At-symbol" d="M512 800c-194.404 0-352-157.596-352-352 0-194.402 157.596-352 352-352 0.666 0 1.327-0.021 1.984-0.060 59.149 0.273 119.040 15.479 174.016 47.219 15.305 8.836 34.876 3.593 43.712-11.712s3.593-34.876-11.712-43.712c-65.587-37.867-137.293-55.868-208.030-55.799-0.704 0-1.404 0.026-2.095 0.068-228.772 1.143-413.875 186.953-413.875 415.996 0 229.751 186.249 416 416 416s416-186.249 416-416v-64c0-76.582-62.084-138.667-138.667-138.667-52.651 0-98.449 29.342-121.929 72.567-37.18-44.361-92.996-72.567-155.405-72.567-111.93 0-202.667 90.735-202.667 202.667 0 111.93 90.737 202.667 202.667 202.667 111.932 0 202.667-90.737 202.667-202.667v-64c0-41.237 33.429-74.667 74.667-74.667s74.667 33.429 74.667 74.667v64c0 194.404-157.598 352-352 352zM650.667 448c0 76.582-62.084 138.667-138.667 138.667s-138.667-62.084-138.667-138.667c0-76.582 62.084-138.667 138.667-138.667s138.667 62.084 138.667 138.667z" />
<glyph unicode="&#xe912;" glyph-name="Backspace" d="M379.046 744.3c22.004 22.004 51.849 34.366 82.966 34.366h348.655c64.802 0 117.333-52.532 117.333-117.333v-426.667c0-64.802-52.531-117.333-117.333-117.333h-348.655c-31.117 0-60.962 12.361-82.966 34.368l-273.673 273.673c-6.001 5.999-9.373 14.14-9.373 22.626s3.372 16.627 9.373 22.626l273.673 273.674zM462.012 714.667c-14.144 0-27.708-5.619-37.711-15.621l-251.046-251.046 251.046-251.046c10.004-10.001 23.567-15.62 37.711-15.62h348.655c29.457 0 53.333 23.876 53.333 53.333v426.667c0 29.455-23.876 53.333-53.333 53.333h-348.655zM489.374 555.961c12.497 12.497 32.755 12.497 45.252 0l62.707-62.704 62.707 62.704c12.497 12.497 32.755 12.497 45.252 0s12.497-32.756 0-45.254l-62.703-62.707 62.703-62.707c12.497-12.497 12.497-32.755 0-45.252s-32.755-12.497-45.252 0l-62.707 62.703-62.707-62.703c-12.497-12.497-32.755-12.497-45.252 0s-12.497 32.755 0 45.252l62.703 62.707-62.703 62.707c-12.497 12.497-12.497 32.757 0 45.254z" />
<glyph unicode="&#xe913;" glyph-name="Badge-check" d="M396.586 818.351c66.51 56.678 164.332 56.678 230.84 0 18.249-15.553 40.939-24.952 64.841-26.859 87.108-6.951 156.279-76.121 163.23-163.228 1.907-23.902 11.307-46.594 26.859-64.844 56.678-66.511 56.678-164.329 0-230.837-15.552-18.253-24.951-40.943-26.859-64.845-6.95-87.108-76.122-156.279-163.23-163.23-23.902-1.907-46.592-11.307-64.841-26.859-66.509-56.678-164.331-56.678-230.84 0-18.25 15.552-40.942 24.951-64.844 26.859-87.107 6.95-156.277 76.122-163.228 163.23-1.908 23.902-11.307 46.592-26.86 64.845-56.678 66.509-56.678 164.326 0 230.837 15.553 18.25 24.952 40.941 26.86 64.844 6.951 87.107 76.121 156.277 163.228 163.228 23.902 1.907 46.594 11.306 64.844 26.859zM585.911 769.639c-42.586 36.294-105.225 36.294-147.814 0-28.5-24.288-63.937-38.967-101.264-41.945-55.778-4.451-100.070-48.744-104.522-104.522-2.979-37.327-17.657-72.764-41.945-101.265-36.294-42.59-36.294-105.225 0-147.814 24.288-28.501 38.966-63.936 41.945-101.265 4.451-55.778 48.744-100.070 104.522-104.521 37.327-2.978 72.764-17.66 101.264-41.946 42.59-36.292 105.229-36.292 147.814 0 28.501 24.286 63.94 38.967 101.265 41.946 55.778 4.45 100.070 48.742 104.525 104.521 2.978 37.329 17.655 72.764 41.941 101.265 36.297 42.59 36.297 105.225 0 147.814-24.286 28.501-38.963 63.938-41.941 101.265-4.454 55.778-48.747 100.071-104.525 104.522-37.325 2.979-72.764 17.657-101.265 41.945zM662.635 555.961c12.493-12.497 12.493-32.756 0-45.254l-170.667-170.667c-12.497-12.497-32.759-12.497-45.257 0l-85.334 85.333c-12.497 12.497-12.497 32.755 0 45.252s32.758 12.497 45.255 0l62.705-62.703 148.041 148.038c12.497 12.497 32.759 12.497 45.257 0z" />
<glyph unicode="&#xe914;" glyph-name="Ban" d="M286.74 718.514l495.775-495.773c115.426 138.291 108.224 344.323-21.615 474.16-129.835 129.837-335.867 137.041-474.16 21.613zM737.259 177.485l-495.773 495.775c-115.429-138.292-108.224-344.325 21.613-474.16 129.837-129.839 335.869-137.041 474.16-21.615zM217.844 742.156c162.458 162.458 425.856 162.458 588.313 0s162.458-425.856 0-588.313c-162.458-162.458-425.855-162.458-588.313 0s-162.458 425.855 0 588.313z" />
<glyph unicode="&#xe915;" glyph-name="Beaker" d="M311.762 801.579c4.953 11.958 16.621 19.754 29.564 19.754h341.332c12.945 0 24.614-7.796 29.564-19.754 4.954-11.957 2.219-25.721-6.933-34.873l-33.297-33.294v-207.4c0-14.144 5.619-27.708 15.625-37.713l163.878-163.878c0.021-0.021 0.043-0.043 0.064-0.064 0.009-0.009 0.021-0.021 0.030-0.030l49.361-49.361c73.916-73.916 21.564-200.299-82.97-200.299h-611.974c-104.533 0-156.883 126.383-82.967 200.299l35.335 35.337c0.011 0.013 0.021 0.021 0.032 0.034 0.020 0.017 0.041 0.038 0.061 0.060l177.905 177.903c10.002 10.005 15.621 23.569 15.621 37.713v207.4l-33.294 33.294c-9.152 9.152-11.89 22.916-6.937 34.873zM203.661 265.079c-0.008-0.009-0.015-0.013-0.022-0.021l-35.345-35.345c-33.598-33.6-9.802-91.046 37.713-91.046h611.974c47.514 0 71.313 57.446 37.713 91.046l-49.391 49.391c-0.021 0.021-0.043 0.043-0.064 0.064-7.437 7.411-16.896 12.463-27.187 14.519l-101.871 20.373c-48.845 9.771-99.55 2.978-144.107-19.298l-13.538-6.771c-57.284-28.638-122.48-37.372-185.281-24.811l-82.421 16.482c-17.486 3.499-35.562-1.975-48.172-14.583zM713.297 372.105l-70.938 70.942c-22.003 22.003-34.368 51.849-34.368 82.965v220.655c0 3.669 0.631 7.273 1.83 10.667h-195.659c1.2-3.394 1.83-6.998 1.83-10.667v-220.655c0-31.117-12.362-60.962-34.366-82.965l-103.393-103.394 68.572-13.713c48.845-9.771 99.552-2.978 144.104 19.298l13.542 6.771c57.284 28.642 122.479 37.372 185.28 24.811l23.565-4.715z" />
<glyph unicode="&#xe916;" glyph-name="Bell" d="M394.884 753.847c3.71 61.458 54.725 110.153 117.116 110.153s113.408-48.695 117.12-110.153c100.655-44.859 170.88-145.782 170.88-263.18v-134.763c0-14.502 5.764-28.412 16.017-38.665l59.947-59.947c9.152-9.152 11.887-22.916 6.933-34.871-4.954-11.959-16.619-19.755-29.564-19.755h-181.333v-10.667c0-88.367-71.633-160-160-160-88.365 0-159.999 71.633-159.999 160v10.667h-181.333c-12.943 0-24.611 7.795-29.564 19.755-4.953 11.955-2.215 25.719 6.937 34.871l59.944 59.947c10.256 10.253 16.017 24.162 16.017 38.665v134.763c0 117.398 70.227 218.321 170.883 263.18zM416.001 202.667v-10.667c0-53.018 42.982-96 95.999-96 53.022 0 96 42.982 96 96v10.667h-191.999zM512 800c-29.453 0-53.333-23.878-53.333-53.333v-14.567c0-13.562-8.546-25.651-21.333-30.171-87.046-30.766-149.332-113.781-149.332-211.262v-134.763c0-31.475-12.504-61.662-34.762-83.921l-5.316-5.316h528.159l-5.316 5.316c-22.259 22.259-34.765 52.446-34.765 83.921v134.763c0 97.481-62.285 180.496-149.329 211.262-12.787 4.52-21.338 16.609-21.338 30.171v14.567c0 29.455-23.876 53.333-53.333 53.333z" />
<glyph unicode="&#xe917;" glyph-name="Book-open" d="M160 675.343c42.555 24.172 98.217 39.324 160 39.324s117.444-15.152 160-39.324v-483.257c-47.014 20.429-101.9 31.915-160 31.915s-112.987-11.486-160-31.915v483.257zM544 675.343c42.556 24.172 98.219 39.324 160 39.324s117.444-15.152 160-39.324v-483.257c-47.014 20.429-101.901 31.915-160 31.915s-112.986-11.486-160-31.915v483.257zM512 730.771c-53.21 30.33-120.148 47.896-192 47.896-80.072 0-154.042-21.815-209.708-58.798-8.927-5.931-14.292-15.936-14.292-26.654v-554.668c0-11.793 6.486-22.626 16.878-28.203 10.393-5.572 23.008-4.975 32.83 1.549 43.994 29.231 105.33 48.107 174.292 48.107s130.3-18.876 174.293-48.107c10.726-7.125 24.687-7.125 35.413 0 43.994 29.231 105.331 48.107 174.293 48.107s130.3-18.876 174.293-48.107c9.822-6.524 22.434-7.121 32.828-1.549 10.394 5.577 16.879 16.41 16.879 28.203v554.668c0 10.717-5.363 20.723-14.293 26.654-55.663 36.983-129.634 58.798-209.707 58.798-71.851 0-138.79-17.566-192-47.896z" />
<glyph unicode="&#xe918;" glyph-name="Bookmark-alt" d="M138.667 704c0 64.801 52.532 117.333 117.333 117.333h512c64.802 0 117.333-52.532 117.333-117.333v-512c0-64.802-52.531-117.333-117.333-117.333h-512c-64.801 0-117.333 52.531-117.333 117.333v512zM650.667 757.333h-277.333v-428.224l124.356 62.178c9.007 4.506 19.614 4.506 28.621 0l124.356-62.178v428.224zM309.333 757.333h-53.333c-29.455 0-53.333-23.878-53.333-53.333v-512c0-29.457 23.878-53.333 53.333-53.333h512c29.457 0 53.333 23.876 53.333 53.333v512c0 29.455-23.876 53.333-53.333 53.333h-53.333v-480c0-11.089-5.743-21.389-15.177-27.221-9.434-5.828-21.214-6.362-31.134-1.399l-156.356 78.178-156.356-78.178c-9.92-4.962-21.7-4.429-31.134 1.399-9.434 5.833-15.177 16.132-15.177 27.221v480z" />
<glyph unicode="&#xe919;" glyph-name="Bookmark" d="M181.333 746.667c0 64.801 52.532 117.333 117.333 117.333h426.667c64.802 0 117.333-52.532 117.333-117.333v-682.667c0-11.089-5.743-21.389-15.177-27.221-9.434-5.828-21.214-6.362-31.134-1.399l-284.356 142.178-284.356-142.178c-9.92-4.962-21.7-4.429-31.134 1.399-9.434 5.833-15.177 16.132-15.177 27.221v682.667zM298.667 800c-29.455 0-53.333-23.878-53.333-53.333v-630.891l252.356 126.178c9.007 4.506 19.614 4.506 28.621 0l252.356-126.178v630.891c0 29.455-23.876 53.333-53.333 53.333h-426.667z" />
<glyph unicode="&#xe91a;" glyph-name="Briefcase" d="M309.331 789.333c0 64.801 52.532 117.333 117.333 117.333h170.669c64.798 0 117.333-52.532 117.333-117.333v-53.333h96c64.798 0 117.333-52.532 117.333-117.333v-223.479c0.009-0.495 0.009-0.99 0-1.481v-201.707c0-64.802-52.535-117.333-117.333-117.333h-597.335c-64.801 0-117.333 52.531-117.333 117.333v201.711c-0.011 0.491-0.011 0.977 0 1.468v223.488c0 64.801 52.532 117.333 117.333 117.333h96v53.333zM213.331 672c-29.455 0-53.333-23.878-53.333-53.333v-202.411c109.356-41.515 227.987-64.256 352.002-64.256 124.011 0 242.641 22.741 352 64.256v202.411c0 29.455-23.881 53.333-53.333 53.333h-597.335zM650.667 736h-277.335v53.333c0 29.455 23.878 53.333 53.333 53.333h170.669c29.453 0 53.333-23.878 53.333-53.333v-53.333zM864 348.1c-110.135-38.929-228.625-60.1-352-60.1-123.377 0-241.868 21.171-352.002 60.1v-156.1c0-29.457 23.878-53.333 53.333-53.333h597.335c29.453 0 53.333 23.876 53.333 53.333v156.1zM480 448c0 17.673 14.323 32 32 32h0.427c17.673 0 32-14.327 32-32s-14.327-32-32-32h-0.427c-17.677 0-32 14.327-32 32z" />
<glyph unicode="&#xe91b;" glyph-name="Cake" d="M352 832c0 17.673 14.327 32 32 32h0.427c17.673 0 32-14.327 32-32s-14.327-32-32-32h-0.427c-17.673 0-32 14.327-32 32zM480 832c0 17.673 14.327 32 32 32h0.427c17.673 0 32-14.327 32-32s-14.327-32-32-32h-0.427c-17.673 0-32 14.327-32 32zM608 832c0 17.673 14.327 32 32 32h0.427c17.673 0 32-14.327 32-32s-14.327-32-32-32h-0.427c-17.673 0-32 14.327-32 32zM384 736c17.673 0 32-14.327 32-32v-53.333h64v53.333c0 17.673 14.327 32 32 32s32-14.327 32-32v-53.333h64v53.333c0 17.673 14.327 32 32 32s32-14.327 32-32v-53.333h10.667c64.802 0 117.333-52.532 117.333-117.333v-53.333h10.667c64.802 0 117.333-52.531 117.333-117.333v-298.667c0-17.673-14.327-32-32-32h-768c-17.673 0-32 14.327-32 32v298.667c0 64.802 52.532 117.333 117.333 117.333h10.667v53.333c0 64.801 52.532 117.333 117.333 117.333h10.667v53.333c0 17.673 14.327 32 32 32zM341.333 586.667c-29.455 0-53.333-23.878-53.333-53.333v-53.333h448v53.333c0 29.455-23.876 53.333-53.333 53.333h-341.333zM213.333 416c-29.455 0-53.333-23.876-53.333-53.333v-37.47c17.434-3.874 34.323-10.953 49.751-21.239 28.006-18.671 64.492-18.671 92.499 0 49.504 33.003 113.997 33.003 163.5 0 28.006-18.671 64.495-18.671 92.501 0 49.502 33.003 113.997 33.003 163.499 0 28.006-18.671 64.495-18.671 92.501 0 15.428 10.287 32.316 17.365 49.749 21.239v37.47c0 29.457-23.876 53.333-53.333 53.333h-597.333zM864 258.33c-4.924-2.048-9.698-4.587-14.251-7.62-49.502-33.003-113.997-33.003-163.499 0-28.006 18.671-64.495 18.671-92.501 0-49.502-33.003-113.997-33.003-163.499 0-28.008 18.671-64.494 18.671-92.5 0-49.504-33.003-113.997-33.003-163.501 0-4.551 3.034-9.325 5.572-14.249 7.62v-162.33h704v162.33z" />
<glyph unicode="&#xe91c;" glyph-name="Calculator" d="M181.333 746.667c0 64.801 52.532 117.333 117.333 117.333h426.667c64.802 0 117.333-52.532 117.333-117.333v-597.333c0-64.802-52.531-117.333-117.333-117.333h-426.667c-64.801 0-117.333 52.531-117.333 117.333v597.333zM298.667 800c-29.455 0-53.333-23.878-53.333-53.333v-597.333c0-29.457 23.878-53.333 53.333-53.333h426.667c29.457 0 53.333 23.876 53.333 53.333v597.333c0 29.455-23.876 53.333-53.333 53.333h-426.667zM352 661.333c0 17.673 14.327 32 32 32h256c17.673 0 32-14.327 32-32s-14.327-32-32-32h-256c-17.673 0-32 14.327-32 32zM352 490.667c0 17.673 14.327 32 32 32h0.427c17.673 0 32-14.327 32-32s-14.327-32-32-32h-0.427c-17.673 0-32 14.327-32 32zM480 490.667c0 17.673 14.327 32 32 32h0.427c17.673 0 32-14.327 32-32s-14.327-32-32-32h-0.427c-17.673 0-32 14.327-32 32zM608 490.667c0 17.673 14.327 32 32 32h0.427c17.673 0 32-14.327 32-32s-14.327-32-32-32h-0.427c-17.673 0-32 14.327-32 32zM352 362.667c0 17.673 14.327 32 32 32h0.427c17.673 0 32-14.327 32-32s-14.327-32-32-32h-0.427c-17.673 0-32 14.327-32 32zM480 362.667c0 17.673 14.327 32 32 32h0.427c17.673 0 32-14.327 32-32s-14.327-32-32-32h-0.427c-17.673 0-32 14.327-32 32zM640 394.667c17.673 0 32-14.327 32-32v-128c0-17.673-14.327-32-32-32s-32 14.327-32 32v128c0 17.673 14.327 32 32 32zM352 234.667c0 17.673 14.327 32 32 32h0.427c17.673 0 32-14.327 32-32s-14.327-32-32-32h-0.427c-17.673 0-32 14.327-32 32zM480 234.667c0 17.673 14.327 32 32 32h0.427c17.673 0 32-14.327 32-32s-14.327-32-32-32h-0.427c-17.673 0-32 14.327-32 32z" />
<glyph unicode="&#xe91d;" glyph-name="Calendar" d="M341.333 864c17.673 0 32-14.327 32-32v-53.333h277.333v53.333c0 17.673 14.327 32 32 32s32-14.327 32-32v-53.333h96c64.802 0 117.333-52.532 117.333-117.333v-512c0-64.802-52.531-117.333-117.333-117.333h-597.333c-64.801 0-117.333 52.531-117.333 117.333v512c0 64.801 52.532 117.333 117.333 117.333h96v53.333c0 17.673 14.327 32 32 32zM309.333 714.667h-96c-29.455 0-53.333-23.878-53.333-53.333v-512c0-29.457 23.878-53.333 53.333-53.333h597.333c29.457 0 53.333 23.876 53.333 53.333v512c0 29.455-23.876 53.333-53.333 53.333h-96v-53.333c0-17.673-14.327-32-32-32s-32 14.327-32 32v53.333h-277.333v-53.333c0-17.673-14.327-32-32-32s-32 14.327-32 32v53.333zM266.667 490.667c0 17.673 14.327 32 32 32h426.667c17.673 0 32-14.327 32-32s-14.327-32-32-32h-426.667c-17.673 0-32 14.327-32 32z" />
<glyph unicode="&#xe91e;" glyph-name="Camera" d="M429.67 757.333c-17.833 0-34.486-8.912-44.378-23.749l-34.668-52.003c-21.761-32.642-58.397-52.248-97.627-52.248h-39.664c-29.455 0-53.333-23.878-53.333-53.333v-384c0-29.457 23.878-53.333 53.333-53.333h597.333c29.457 0 53.333 23.876 53.333 53.333v384c0 29.455-23.876 53.333-53.333 53.333h-39.663c-39.232 0-75.866 19.607-97.63 52.248l-34.667 52.003c-9.89 14.837-26.543 23.749-44.378 23.749h-164.659zM332.042 769.085c21.761 32.642 58.397 52.248 97.629 52.248h164.659c39.232 0 75.866-19.607 97.63-52.248l34.667-52.003c9.89-14.837 26.543-23.749 44.378-23.749h39.663c64.802 0 117.333-52.532 117.333-117.333v-384c0-64.802-52.531-117.333-117.333-117.333h-597.333c-64.801 0-117.333 52.531-117.333 117.333v384c0 64.801 52.532 117.333 117.333 117.333h39.664c17.832 0 34.484 8.912 44.376 23.749l34.668 52.003zM512 501.333c-53.018 0-96-42.982-96-96s42.982-96 96-96c53.018 0 96 42.982 96 96s-42.982 96-96 96zM352 405.333c0 88.367 71.634 160 160 160s160-71.633 160-160-71.633-160-160-160c-88.366 0-160 71.633-160 160z" />
<glyph unicode="&#xe91f;" glyph-name="Cash" d="M96 661.333c0 64.801 52.532 117.333 117.333 117.333h426.667c64.802 0 117.333-52.532 117.333-117.333v-53.333h53.333c64.802 0 117.333-52.532 117.333-117.333v-256c0-64.802-52.531-117.333-117.333-117.333h-426.667c-64.801 0-117.333 52.531-117.333 117.333v53.333h-53.333c-64.801 0-117.333 52.531-117.333 117.333v256zM330.667 234.667c0-29.457 23.878-53.333 53.333-53.333h426.667c29.457 0 53.333 23.876 53.333 53.333v256c0 29.457-23.876 53.333-53.333 53.333h-426.667c-29.455 0-53.333-23.876-53.333-53.333v-256zM693.333 608v53.333c0 29.455-23.876 53.333-53.333 53.333h-426.667c-29.455 0-53.333-23.878-53.333-53.333v-256c0-29.457 23.878-53.333 53.333-53.333h53.333v138.667c0 64.801 52.532 117.333 117.333 117.333h309.333zM597.333 416c-29.457 0-53.333-23.876-53.333-53.333s23.876-53.333 53.333-53.333c29.457 0 53.333 23.876 53.333 53.333s-23.876 53.333-53.333 53.333zM480 362.667c0 64.802 52.531 117.333 117.333 117.333s117.333-52.531 117.333-117.333c0-64.802-52.531-117.333-117.333-117.333s-117.333 52.531-117.333 117.333z" />
<glyph unicode="&#xe920;" glyph-name="Chart-bar" d="M608 746.667c0 64.801 52.531 117.333 117.333 117.333h85.333c64.802 0 117.333-52.532 117.333-117.333v-597.333c0-64.802-52.531-117.333-117.333-117.333h-85.333c-33.621 0-63.94 14.14-85.333 36.8-21.393-22.66-51.712-36.8-85.333-36.8h-85.333c-33.621 0-63.941 14.14-85.333 36.8-21.392-22.66-51.711-36.8-85.333-36.8h-85.333c-64.801 0-117.333 52.531-117.333 117.333v256c0 64.802 52.532 117.333 117.333 117.333h85.333c19.205 0 37.332-4.612 53.333-12.796v66.129c0 64.801 52.532 117.333 117.333 117.333h85.333c19.204 0 37.333-4.614 53.333-12.794v66.127zM672 149.333c0-29.457 23.876-53.333 53.333-53.333h85.333c29.457 0 53.333 23.876 53.333 53.333v597.333c0 29.455-23.876 53.333-53.333 53.333h-85.333c-29.457 0-53.333-23.878-53.333-53.333v-597.333zM608 576c0 29.455-23.876 53.333-53.333 53.333h-85.333c-29.457 0-53.333-23.878-53.333-53.333v-426.667c0-29.457 23.876-53.333 53.333-53.333h85.333c29.457 0 53.333 23.876 53.333 53.333v426.667zM352 405.333c0 29.457-23.878 53.333-53.333 53.333h-85.333c-29.455 0-53.333-23.876-53.333-53.333v-256c0-29.457 23.878-53.333 53.333-53.333h85.333c29.455 0 53.333 23.876 53.333 53.333v256z" />
<glyph unicode="&#xe921;" glyph-name="Chart-pie" d="M490.679 853.494c6.78-6.070 10.654-14.739 10.654-23.838v-392.323h392.324c9.097 0 17.766-3.874 23.838-10.654 6.067-6.775 8.969-15.817 7.966-24.862-22.997-208.034-199.313-369.818-413.461-369.818-229.751 0-416 186.249-416 416 0 214.148 161.786 390.466 369.818 413.462 9.045 1 18.086-1.898 24.862-7.968zM437.333 792.071c-158.528-34.231-277.333-175.296-277.333-344.071 0-194.406 157.596-352 352-352 168.777 0 309.841 118.805 344.073 277.333h-386.739c-17.673 0-32 14.327-32 32v386.737zM621.525 836.269c8.478 5.998 19.345 7.505 29.137 4.044 118.221-41.786 211.866-135.428 253.653-253.649 3.465-9.794 1.954-20.659-4.041-29.14-5.999-8.482-15.74-13.524-26.129-13.524h-234.146c-17.673 0-32 14.327-32 32v234.142c0 10.388 5.043 20.129 13.525 26.127zM672 761.618v-153.618h153.621c-33.724 65.958-87.663 119.895-153.621 153.618z" />
<glyph unicode="&#xe922;" glyph-name="Chart-square-bar" d="M138.667 704c0 64.801 52.532 117.333 117.333 117.333h512c64.802 0 117.333-52.532 117.333-117.333v-512c0-64.802-52.531-117.333-117.333-117.333h-512c-64.801 0-117.333 52.531-117.333 117.333v512zM256 757.333c-29.455 0-53.333-23.878-53.333-53.333v-512c0-29.457 23.878-53.333 53.333-53.333h512c29.457 0 53.333 23.876 53.333 53.333v512c0 29.455-23.876 53.333-53.333 53.333h-512zM682.667 650.667c17.673 0 32-14.327 32-32v-341.333c0-17.673-14.327-32-32-32s-32 14.327-32 32v341.333c0 17.673 14.327 32 32 32zM512 522.667c17.673 0 32-14.327 32-32v-213.333c0-17.673-14.327-32-32-32s-32 14.327-32 32v213.333c0 17.673 14.327 32 32 32zM341.333 394.667c17.673 0 32-14.327 32-32v-85.333c0-17.673-14.327-32-32-32s-32 14.327-32 32v85.333c0 17.673 14.327 32 32 32z" />
<glyph unicode="&#xe923;" glyph-name="Chat-alt-2" d="M96 704c0 64.801 52.532 117.333 117.333 117.333h426.667c64.802 0 117.333-52.532 117.333-117.333v-53.333h53.333c64.802 0 117.333-52.532 117.333-117.333v-256c0-64.802-52.531-117.333-117.333-117.333h-53.333v-138.667c0-12.941-7.795-24.61-19.755-29.564-11.955-4.954-25.719-2.214-34.871 6.938l-161.297 161.293h-157.41c-20.76 0-40.281 5.41-57.205 14.874l-5.501-5.5c-9.152-9.152-22.916-11.891-34.873-6.938s-19.754 16.623-19.754 29.564v138.667h-53.333c-64.801 0-117.333 52.531-117.333 117.333v256zM376.449 224.529c2.465-0.35 4.986-0.529 7.551-0.529h170.667c8.486 0 16.627-3.371 22.626-9.374l116.041-116.036v93.41c0 17.673 14.327 32 32 32h85.333c29.457 0 53.333 23.876 53.333 53.333v256c0 29.455-23.876 53.333-53.333 53.333h-53.333v-138.667c0-64.802-52.531-117.333-117.333-117.333h-157.41l-106.141-106.138zM693.333 704c0 29.455-23.876 53.333-53.333 53.333h-426.667c-29.455 0-53.333-23.878-53.333-53.333v-256c0-29.457 23.878-53.333 53.333-53.333h85.333c17.673 0 32-14.327 32-32v-93.41l116.041 116.036c5.999 6.003 14.14 9.374 22.626 9.374h170.667c29.457 0 53.333 23.876 53.333 53.333v256z" />
<glyph unicode="&#xe924;" glyph-name="Chat-alt" d="M85.333 704c0 70.692 57.308 128 128 128h597.333c70.694 0 128-57.308 128-128v-341.333c0-70.694-57.306-128-128-128h-195.661l-200.836-200.836c-12.203-12.203-30.554-15.855-46.498-9.25s-26.339 22.161-26.339 39.42v170.667h-128c-70.692 0-128 57.306-128 128v341.333zM213.333 746.667c-23.564 0-42.667-19.103-42.667-42.667v-341.333c0-23.565 19.103-42.667 42.667-42.667h170.667c23.564 0 42.667-19.102 42.667-42.667v-110.327l140.497 140.497c8 8 18.854 12.497 30.17 12.497h213.333c23.565 0 42.667 19.102 42.667 42.667v341.333c0 23.564-19.102 42.667-42.667 42.667h-597.333zM298.667 533.333c0 23.564 19.103 42.667 42.667 42.667h0.427c23.564 0 42.667-19.103 42.667-42.667s-19.103-42.667-42.667-42.667h-0.427c-23.564 0-42.667 19.102-42.667 42.667zM469.333 533.333c0 23.564 19.102 42.667 42.667 42.667h0.427c23.565 0 42.667-19.103 42.667-42.667s-19.102-42.667-42.667-42.667h-0.427c-23.565 0-42.667 19.102-42.667 42.667zM640 533.333c0 23.564 19.102 42.667 42.667 42.667h0.427c23.565 0 42.667-19.103 42.667-42.667s-19.102-42.667-42.667-42.667h-0.427c-23.565 0-42.667 19.102-42.667 42.667z" />
<glyph unicode="&#xe925;" glyph-name="Chat" d="M512 757.333c-198.051 0-352-141.932-352-309.333 0-60.049 19.473-116.258 53.565-164.023 6.189-8.67 7.657-19.853 3.917-29.828l-39.305-104.811 145.987 29.197c6.786 1.357 13.829 0.478 20.073-2.509 49.75-23.77 106.861-37.359 167.764-37.359 198.050 0 352 141.931 352 309.333s-153.95 309.333-352 309.333zM96 448c0 209.626 189.897 373.333 416 373.333s416-163.708 416-373.333c0-209.626-189.897-373.333-416-373.333-66.517 0-129.552 14.016-185.516 39.061l-192.207-38.438c-11.393-2.278-23.127 1.796-30.653 10.645-7.527 8.853-9.664 21.090-5.585 31.966l53.708 143.223c-35.337 54.788-55.746 118.626-55.746 186.876zM309.334 448c0 17.673 14.327 32 32 32h0.427c17.673 0 32-14.327 32-32s-14.327-32-32-32h-0.427c-17.673 0-32 14.327-32 32zM480 448c0 17.673 14.327 32 32 32h0.427c17.673 0 32-14.327 32-32s-14.327-32-32-32h-0.427c-17.673 0-32 14.327-32 32zM650.667 448c0 17.673 14.327 32 32 32h0.427c17.673 0 32-14.327 32-32s-14.327-32-32-32h-0.427c-17.673 0-32 14.327-32 32z" />
<glyph unicode="&#xe926;" glyph-name="Check-circle" d="M512 800c-194.404 0-352-157.596-352-352 0-194.402 157.596-352 352-352 194.402 0 352 157.598 352 352 0 194.404-157.598 352-352 352zM96 448c0 229.751 186.249 416 416 416s416-186.249 416-416c0-229.751-186.249-416-416-416s-416 186.249-416 416zM662.626 555.961c12.497-12.497 12.497-32.756 0-45.254l-170.667-170.667c-12.497-12.497-32.755-12.497-45.252 0l-85.335 85.333c-12.497 12.497-12.497 32.755 0 45.252s32.758 12.497 45.255 0l62.706-62.703 148.041 148.038c12.497 12.497 32.755 12.497 45.252 0z" />
<glyph unicode="&#xe927;" glyph-name="Check" d="M833.293 683.961c12.497-12.497 12.497-32.758 0-45.255l-426.665-426.665c-12.497-12.497-32.758-12.497-45.255 0l-170.667 170.667c-12.497 12.497-12.497 32.755 0 45.252s32.758 12.497 45.255 0l148.039-148.036 404.041 404.038c12.497 12.497 32.755 12.497 45.252 0z" />
<glyph unicode="&#xe928;" glyph-name="Chevron-double-down" d="M190.706 769.294c12.497 12.497 32.758 12.497 45.255 0l276.039-276.038 276.041 276.038c12.497 12.497 32.755 12.497 45.252 0s12.497-32.758 0-45.255l-298.667-298.665c-5.999-6.003-14.14-9.374-22.626-9.374s-16.627 3.371-22.626 9.374l-298.668 298.665c-12.497 12.497-12.497 32.758 0 45.255zM190.706 427.959c12.497 12.497 32.758 12.497 45.255 0l276.039-276.036 276.041 276.036c12.497 12.497 32.755 12.497 45.252 0s12.497-32.755 0-45.252l-298.667-298.667c-12.497-12.497-32.755-12.497-45.252 0l-298.668 298.667c-12.497 12.497-12.497 32.755 0 45.252z" />
<glyph unicode="&#xe929;" glyph-name="Chevron-double-left" d="M491.959 769.294c12.497-12.497 12.497-32.758 0-45.255l-276.038-276.039 276.038-276.041c12.497-12.497 12.497-32.755 0-45.252s-32.755-12.497-45.252 0l-298.668 298.667c-12.497 12.497-12.497 32.755 0 45.252l298.668 298.668c12.497 12.497 32.755 12.497 45.252 0zM833.293 769.294c12.497-12.497 12.497-32.758 0-45.255l-276.036-276.039 276.036-276.041c12.497-12.497 12.497-32.755 0-45.252s-32.755-12.497-45.252 0l-298.667 298.667c-12.497 12.497-12.497 32.755 0 45.252l298.667 298.668c12.497 12.497 32.755 12.497 45.252 0z" />
<glyph unicode="&#xe92a;" glyph-name="Chevron-double-right" d="M190.706 769.294c12.497 12.497 32.758 12.497 45.255 0l298.665-298.668c6.003-5.999 9.374-14.14 9.374-22.626s-3.371-16.627-9.374-22.626l-298.665-298.667c-12.497-12.497-32.758-12.497-45.255 0s-12.497 32.755 0 45.252l276.038 276.041-276.038 276.039c-12.497 12.497-12.497 32.758 0 45.255zM532.041 769.294c12.497 12.497 32.755 12.497 45.252 0l298.667-298.668c12.497-12.497 12.497-32.755 0-45.252l-298.667-298.667c-12.497-12.497-32.755-12.497-45.252 0s-12.497 32.755 0 45.252l276.036 276.041-276.036 276.039c-12.497 12.497-12.497 32.758 0 45.255z" />
<glyph unicode="&#xe92b;" glyph-name="Chevron-double-up" d="M489.374 811.961c12.497 12.497 32.755 12.497 45.252 0l298.667-298.668c12.497-12.497 12.497-32.755 0-45.252s-32.755-12.497-45.252 0l-276.041 276.038-276.039-276.038c-12.497-12.497-32.758-12.497-45.255 0s-12.497 32.755 0 45.252l298.668 298.668zM512 402.743l-276.039-276.036c-12.497-12.497-32.758-12.497-45.255 0s-12.497 32.755 0 45.252l298.668 298.667c12.497 12.497 32.755 12.497 45.252 0l298.667-298.667c12.497-12.497 12.497-32.755 0-45.252s-32.755-12.497-45.252 0l-276.041 276.036z" />
<glyph unicode="&#xe92c;" glyph-name="Chevron-down" d="M190.706 598.627c12.497 12.497 32.758 12.497 45.255 0l276.039-276.038 276.041 276.038c12.497 12.497 32.755 12.497 45.252 0s12.497-32.758 0-45.255l-298.667-298.665c-12.497-12.497-32.755-12.497-45.252 0l-298.668 298.665c-12.497 12.497-12.497 32.758 0 45.255z" />
<glyph unicode="&#xe92d;" glyph-name="Chevron-left" d="M662.626 769.294c12.497-12.497 12.497-32.758 0-45.255l-276.038-276.039 276.038-276.041c12.497-12.497 12.497-32.755 0-45.252s-32.755-12.497-45.252 0l-298.668 298.667c-12.497 12.497-12.497 32.755 0 45.252l298.668 298.668c12.497 12.497 32.755 12.497 45.252 0z" />
<glyph unicode="&#xe92e;" glyph-name="Chevron-right" d="M361.373 126.707c-12.497 12.497-12.497 32.755 0 45.252l276.038 276.041-276.038 276.039c-12.497 12.497-12.497 32.758 0 45.255s32.758 12.497 45.255 0l298.665-298.668c12.497-12.497 12.497-32.755 0-45.252l-298.665-298.667c-12.497-12.497-32.758-12.497-45.255 0z" />
<glyph unicode="&#xe92f;" glyph-name="Chevron-up" d="M833.293 297.374c-12.497-12.497-32.755-12.497-45.252 0l-276.041 276.038-276.039-276.038c-12.497-12.497-32.758-12.497-45.255 0s-12.497 32.755 0 45.252l298.668 298.668c12.497 12.497 32.755 12.497 45.252 0l298.667-298.668c12.497-12.497 12.497-32.755 0-45.252z" />
<glyph unicode="&#xe930;" glyph-name="Chip" d="M384 864c17.673 0 32-14.327 32-32v-53.333h192v53.333c0 17.673 14.327 32 32 32s32-14.327 32-32v-53.333h53.333c64.802 0 117.333-52.532 117.333-117.333v-53.333h53.333c17.673 0 32-14.327 32-32s-14.327-32-32-32h-53.333v-192h53.333c17.673 0 32-14.327 32-32s-14.327-32-32-32h-53.333v-53.333c0-64.802-52.531-117.333-117.333-117.333h-53.333v-53.333c0-17.673-14.327-32-32-32s-32 14.327-32 32v53.333h-192v-53.333c0-17.673-14.327-32-32-32s-32 14.327-32 32v53.333h-53.333c-64.801 0-117.333 52.531-117.333 117.333v53.333h-53.333c-17.673 0-32 14.327-32 32s14.327 32 32 32h53.333v192h-53.333c-17.673 0-32 14.327-32 32s14.327 32 32 32h53.333v53.333c0 64.801 52.532 117.333 117.333 117.333h53.333v53.333c0 17.673 14.327 32 32 32zM298.667 714.667c-29.455 0-53.333-23.878-53.333-53.333v-426.667c0-29.457 23.878-53.333 53.333-53.333h426.667c29.457 0 53.333 23.876 53.333 53.333v426.667c0 29.455-23.876 53.333-53.333 53.333h-426.667zM352 576c0 17.673 14.327 32 32 32h256c17.673 0 32-14.327 32-32v-256c0-17.673-14.327-32-32-32h-256c-17.673 0-32 14.327-32 32v256zM416 544v-192h192v192h-192z" />
<glyph unicode="&#xe931;" glyph-name="Clipboard-check" d="M356.417 778.667c13.929 49.248 59.209 85.333 112.916 85.333h85.333c53.709 0 98.987-36.085 112.917-85.333h57.749c64.802 0 117.333-52.532 117.333-117.333v-512c0-64.802-52.531-117.333-117.333-117.333h-426.667c-64.801 0-117.333 52.531-117.333 117.333v512c0 64.801 52.532 117.333 117.333 117.333h57.75zM356.417 714.667h-57.75c-29.455 0-53.333-23.878-53.333-53.333v-512c0-29.457 23.878-53.333 53.333-53.333h426.667c29.457 0 53.333 23.876 53.333 53.333v512c0 29.455-23.876 53.333-53.333 53.333h-57.749c-13.931-49.248-59.209-85.333-112.917-85.333h-85.333c-53.708 0-98.988 36.085-112.916 85.333zM469.333 800c-29.457 0-53.333-23.878-53.333-53.333s23.876-53.333 53.333-53.333h85.333c29.457 0 53.333 23.878 53.333 53.333s-23.876 53.333-53.333 53.333h-85.333zM662.626 470.626c12.497-12.497 12.497-32.755 0-45.252l-170.667-170.667c-12.497-12.497-32.755-12.497-45.252 0l-85.335 85.333c-12.497 12.497-12.497 32.755 0 45.252s32.758 12.497 45.255 0l62.706-62.703 148.041 148.036c12.497 12.497 32.755 12.497 45.252 0z" />
<glyph unicode="&#xe932;" glyph-name="Clipboard-copy" d="M313.75 778.667c13.929 49.248 59.209 85.333 112.916 85.333h85.333c53.709 0 98.987-36.085 112.917-85.333h57.749c64.802 0 117.333-52.532 117.333-117.333v-128c0-17.673-14.327-32-32-32s-32 14.327-32 32v128c0 29.455-23.876 53.333-53.333 53.333h-57.749c-13.931-49.248-59.209-85.333-112.917-85.333h-85.333c-53.708 0-98.988 36.085-112.916 85.333h-57.75c-29.455 0-53.333-23.878-53.333-53.333v-512c0-29.457 23.878-53.333 53.333-53.333h426.667c29.457 0 53.333 23.876 53.333 53.333v42.667c0 17.673 14.327 32 32 32s32-14.327 32-32v-42.667c0-64.802-52.531-117.333-117.333-117.333h-426.667c-64.801 0-117.333 52.531-117.333 117.333v512c0 64.801 52.532 117.333 117.333 117.333h57.75zM426.667 800c-29.455 0-53.333-23.878-53.333-53.333s23.878-53.333 53.333-53.333h85.333c29.457 0 53.333 23.878 53.333 53.333s-23.876 53.333-53.333 53.333h-85.333zM577.293 513.293c12.497-12.497 12.497-32.755 0-45.252l-73.37-73.374h349.41c17.673 0 32-14.327 32-32s-14.327-32-32-32h-349.41l73.37-73.374c12.497-12.497 12.497-32.755 0-45.252s-32.755-12.497-45.252 0l-128.001 128c-12.497 12.497-12.497 32.755 0 45.252l128.001 128c12.497 12.497 32.755 12.497 45.252 0z" />
<glyph unicode="&#xe933;" glyph-name="Clipboard-list" d="M356.417 778.667c13.929 49.248 59.209 85.333 112.916 85.333h85.333c53.709 0 98.987-36.085 112.917-85.333h57.749c64.802 0 117.333-52.532 117.333-117.333v-512c0-64.802-52.531-117.333-117.333-117.333h-426.667c-64.801 0-117.333 52.531-117.333 117.333v512c0 64.801 52.532 117.333 117.333 117.333h57.75zM356.417 714.667h-57.75c-29.455 0-53.333-23.878-53.333-53.333v-512c0-29.457 23.878-53.333 53.333-53.333h426.667c29.457 0 53.333 23.876 53.333 53.333v512c0 29.455-23.876 53.333-53.333 53.333h-57.749c-13.931-49.248-59.209-85.333-112.917-85.333h-85.333c-53.708 0-98.988 36.085-112.916 85.333zM469.333 800c-29.457 0-53.333-23.878-53.333-53.333s23.876-53.333 53.333-53.333h85.333c29.457 0 53.333 23.878 53.333 53.333s-23.876 53.333-53.333 53.333h-85.333zM352 448c0 17.673 14.327 32 32 32h0.427c17.673 0 32-14.327 32-32s-14.327-32-32-32h-0.427c-17.673 0-32 14.327-32 32zM480 448c0 17.673 14.327 32 32 32h128c17.673 0 32-14.327 32-32s-14.327-32-32-32h-128c-17.673 0-32 14.327-32 32zM352 277.333c0 17.673 14.327 32 32 32h0.427c17.673 0 32-14.327 32-32s-14.327-32-32-32h-0.427c-17.673 0-32 14.327-32 32zM480 277.333c0 17.673 14.327 32 32 32h128c17.673 0 32-14.327 32-32s-14.327-32-32-32h-128c-17.673 0-32 14.327-32 32z" />
<glyph unicode="&#xe934;" glyph-name="Clipboard" d="M356.417 778.667c13.929 49.248 59.209 85.333 112.916 85.333h85.333c53.709 0 98.987-36.085 112.917-85.333h57.749c64.802 0 117.333-52.532 117.333-117.333v-512c0-64.802-52.531-117.333-117.333-117.333h-426.667c-64.801 0-117.333 52.531-117.333 117.333v512c0 64.801 52.532 117.333 117.333 117.333h57.75zM356.417 714.667h-57.75c-29.455 0-53.333-23.878-53.333-53.333v-512c0-29.457 23.878-53.333 53.333-53.333h426.667c29.457 0 53.333 23.876 53.333 53.333v512c0 29.455-23.876 53.333-53.333 53.333h-57.749c-13.931-49.248-59.209-85.333-112.917-85.333h-85.333c-53.708 0-98.988 36.085-112.916 85.333zM469.333 800c-29.457 0-53.333-23.878-53.333-53.333s23.876-53.333 53.333-53.333h85.333c29.457 0 53.333 23.878 53.333 53.333s-23.876 53.333-53.333 53.333h-85.333z" />
<glyph unicode="&#xe935;" glyph-name="Clock" d="M512 800c-194.404 0-352-157.596-352-352 0-194.402 157.596-352 352-352 194.402 0 352 157.598 352 352 0 194.404-157.598 352-352 352zM96 448c0 229.751 186.249 416 416 416s416-186.249 416-416c0-229.751-186.249-416-416-416s-416 186.249-416 416zM512 650.667c17.673 0 32-14.327 32-32v-157.41l118.626-118.63c12.497-12.497 12.497-32.755 0-45.252s-32.755-12.497-45.252 0l-128 128c-6.003 5.999-9.374 14.14-9.374 22.626v170.667c0 17.673 14.327 32 32 32z" />
<glyph unicode="&#xe936;" glyph-name="Cloud-download-1" d="M469.333 842.667c-100.148 0-181.333-81.186-181.333-181.333 0-13.712 1.516-27.031 4.378-39.814 3.859-17.241-6.985-34.347-24.224-38.214-61.914-13.888-108.154-69.236-108.154-135.306 0-76.582 62.083-138.667 138.667-138.667 17.673 0 32-14.327 32-32s-14.327-32-32-32c-111.93 0-202.667 90.735-202.667 202.667 0 86.043 53.594 159.508 129.201 188.931-0.794 8.034-1.201 16.175-1.201 24.403 0 135.494 109.839 245.333 245.333 245.333 109.798 0 202.697-72.102 234.027-171.527 125.811-10.508 224.64-115.949 224.64-244.473 0-118.729-84.305-217.694-196.301-240.427-17.318-3.516-34.21 7.676-37.726 24.994-3.516 17.323 7.676 34.21 24.994 37.726 82.756 16.798 145.033 90.018 145.033 177.707 0 100.148-81.186 181.333-181.333 181.333-1.212 0-2.423-0.012-3.631-0.035-15.458-0.303-28.919 10.485-31.991 25.634-16.785 82.773-90.010 145.068-177.711 145.068zM512 565.333c17.673 0 32-14.327 32-32v-434.743l73.374 73.37c12.497 12.497 32.755 12.497 45.252 0s12.497-32.755 0-45.252l-128-128c-12.497-12.497-32.755-12.497-45.252 0l-128.001 128c-12.497 12.497-12.497 32.755 0 45.252s32.758 12.497 45.255 0l73.373-73.37v434.743c0 17.673 14.327 32 32 32z" />
<glyph unicode="&#xe937;" glyph-name="Cloud-download" d="M512 842.667c-88.763 0-162.69-63.809-178.295-148.068-2.413-13.030-12.608-23.225-25.638-25.638-84.259-15.604-148.068-89.532-148.068-178.295 0-100.147 81.186-181.333 181.333-181.333 17.673 0 32-14.327 32-32s-14.327-32-32-32c-135.494 0-245.333 109.841-245.333 245.333 0 112.74 76.017 207.666 179.585 236.415 28.749 103.567 123.675 179.585 236.415 179.585 112.738 0 207.667-76.017 236.416-179.585 103.565-28.749 179.584-123.675 179.584-236.415 0-135.492-109.841-245.333-245.333-245.333-17.673 0-32 14.327-32 32s14.327 32 32 32c100.147 0 181.333 81.186 181.333 181.333 0 88.763-63.808 162.69-148.066 178.295-13.030 2.413-23.228 12.608-25.638 25.638-15.603 84.259-89.532 148.068-178.295 148.068zM512 565.333c17.673 0 32-14.327 32-32v-434.743l73.374 73.37c12.497 12.497 32.755 12.497 45.252 0s12.497-32.755 0-45.252l-128-128c-12.497-12.497-32.755-12.497-45.252 0l-128.001 128c-12.497 12.497-12.497 32.755 0 45.252s32.758 12.497 45.255 0l73.373-73.37v434.743c0 17.673 14.327 32 32 32z" />
<glyph unicode="&#xe938;" glyph-name="Cloud-upload-1" d="M469.333 842.667c-100.148 0-181.333-81.186-181.333-181.333 0-13.712 1.516-27.031 4.378-39.814 3.859-17.241-6.985-34.347-24.224-38.214-61.914-13.888-108.154-69.236-108.154-135.306 0-76.582 62.083-138.667 138.667-138.667 17.673 0 32-14.327 32-32s-14.327-32-32-32c-111.93 0-202.667 90.735-202.667 202.667 0 86.043 53.594 159.508 129.201 188.931-0.794 8.034-1.201 16.175-1.201 24.403 0 135.494 109.839 245.333 245.333 245.333 109.798 0 202.697-72.102 234.027-171.527 125.811-10.508 224.64-115.949 224.64-244.473 0-118.729-84.305-217.694-196.301-240.427-17.318-3.516-34.21 7.676-37.726 24.994-3.516 17.323 7.676 34.21 24.994 37.726 82.756 16.798 145.033 90.018 145.033 177.707 0 100.148-81.186 181.333-181.333 181.333-1.212 0-2.423-0.012-3.631-0.035-15.458-0.303-28.919 10.485-31.991 25.634-16.785 82.773-90.010 145.068-177.711 145.068zM489.374 555.961c12.497 12.497 32.755 12.497 45.252 0l128-128.001c12.497-12.497 12.497-32.755 0-45.252s-32.755-12.497-45.252 0l-73.374 73.37v-434.743c0-17.673-14.327-32-32-32s-32 14.327-32 32v434.743l-73.373-73.37c-12.497-12.497-32.758-12.497-45.255 0s-12.497 32.755 0 45.252l128.001 128.001z" />
<glyph unicode="&#xe939;" glyph-name="Cloud-upload" d="M512 800c-88.763 0-162.69-63.809-178.295-148.068-2.413-13.030-12.608-23.225-25.638-25.638-84.259-15.604-148.068-89.532-148.068-178.295 0-100.147 81.186-181.333 181.333-181.333 17.673 0 32-14.327 32-32s-14.327-32-32-32c-135.494 0-245.333 109.841-245.333 245.333 0 112.74 76.017 207.666 179.585 236.415 28.749 103.567 123.675 179.585 236.415 179.585 112.738 0 207.667-76.017 236.416-179.585 103.565-28.749 179.584-123.675 179.584-236.415 0-135.492-109.841-245.333-245.333-245.333-17.673 0-32 14.327-32 32s14.327 32 32 32c100.147 0 181.333 81.186 181.333 181.333 0 88.763-63.808 162.69-148.066 178.295-13.030 2.413-23.228 12.608-25.638 25.638-15.603 84.259-89.532 148.068-178.295 148.068zM480 498.743l-73.373-73.37c-12.497-12.497-32.758-12.497-45.255 0s-12.497 32.755 0 45.252l128.001 128.001c12.497 12.497 32.755 12.497 45.252 0l128-128.001c12.497-12.497 12.497-32.755 0-45.252s-32.755-12.497-45.252 0l-73.374 73.37v-434.743c0-17.673-14.327-32-32-32s-32 14.327-32 32v434.743z" />
<glyph unicode="&#xe93a;" glyph-name="Cloud" d="M469.333 714.667c-100.148 0-181.333-81.186-181.333-181.333 0-13.713 1.516-27.029 4.378-39.812 3.859-17.242-6.985-34.347-24.224-38.217-61.914-13.888-108.154-69.235-108.154-135.305 0-76.582 62.083-138.667 138.667-138.667h384c100.147 0 181.333 81.186 181.333 181.333s-81.186 181.333-181.333 181.333c-1.212 0-2.423-0.012-3.631-0.035-15.458-0.303-28.919 10.485-31.991 25.634-16.785 82.773-90.010 145.068-177.711 145.068zM224 533.333c0 135.494 109.839 245.333 245.333 245.333 109.798 0 202.697-72.102 234.027-171.527 125.811-10.508 224.64-115.948 224.64-244.473 0-135.492-109.841-245.333-245.333-245.333h-384c-111.93 0-202.667 90.735-202.667 202.667 0 86.042 53.594 159.509 129.201 188.932-0.794 8.030-1.201 16.175-1.201 24.401z" />
<glyph unicode="&#xe93b;" glyph-name="Code" d="M605.094 820.378c17.143-4.286 27.571-21.66 23.283-38.806l-170.667-682.667c-4.288-17.143-21.662-27.571-38.805-23.283-17.146 4.288-27.57 21.662-23.284 38.805l170.667 682.667c4.288 17.145 21.662 27.569 38.805 23.283zM278.627 641.295c12.497-12.497 12.497-32.758 0-45.255l-148.039-148.040 148.039-148.041c12.497-12.497 12.497-32.755 0-45.252s-32.758-12.497-45.255 0l-170.667 170.667c-12.497 12.497-12.497 32.755 0 45.252l170.667 170.668c12.497 12.497 32.758 12.497 45.255 0zM745.374 641.295c12.497 12.497 32.755 12.497 45.252 0l170.667-170.668c12.497-12.497 12.497-32.755 0-45.252l-170.667-170.667c-12.497-12.497-32.755-12.497-45.252 0s-12.497 32.755 0 45.252l148.036 148.041-148.036 148.040c-12.497 12.497-12.497 32.758 0 45.255z" />
<glyph unicode="&#xe93c;" glyph-name="Cog" d="M409.421 783.344c26.108 107.541 179.051 107.541 205.158 0 6.639-27.351 37.978-40.33 62.012-25.686 94.502 57.583 202.65-50.565 145.067-145.069-14.643-24.035-1.664-55.37 25.685-62.010 107.541-26.108 107.541-179.051 0-205.158-27.349-6.639-40.329-37.973-25.685-62.012 57.583-94.502-50.564-202.65-145.067-145.067-24.034 14.643-55.373 1.664-62.012-25.685-26.108-107.541-179.051-107.541-205.158 0-6.64 27.349-37.975 40.329-62.010 25.685-94.504-57.583-202.651 50.564-145.069 145.067 14.644 24.038 1.665 55.373-25.686 62.012-107.541 26.108-107.541 179.051 0 205.158 27.351 6.64 40.33 37.975 25.686 62.010-57.583 94.504 50.565 202.651 145.069 145.069 24.035-14.644 55.371-1.665 62.010 25.686zM552.384 768.245c-10.278 42.339-70.49 42.339-80.768 0-16.866-69.47-96.458-102.438-157.507-65.24-37.207 22.67-79.785-19.908-57.114-57.114 37.198-61.048 4.23-140.64-65.24-157.507-42.339-10.278-42.339-70.49 0-80.768 69.47-16.866 102.438-96.457 65.24-157.508-22.67-37.205 19.908-79.782 57.114-57.114 61.048 37.197 140.64 4.233 157.507-65.242 10.278-42.338 70.49-42.338 80.768 0 16.866 69.474 96.457 102.438 157.508 65.242 37.205-22.669 79.782 19.908 57.114 57.114-37.197 61.052-4.233 140.642 65.242 157.508 42.338 10.278 42.338 70.49 0 80.768-69.474 16.866-102.438 96.458-65.242 157.507 22.669 37.207-19.908 79.785-57.114 57.114-61.052-37.198-140.642-4.23-157.508 65.24zM512 544c-53.018 0-96-42.982-96-96s42.982-96 96-96c53.018 0 96 42.982 96 96s-42.982 96-96 96zM352 448c0 88.366 71.634 160 160 160s160-71.634 160-160c0-88.367-71.633-160-160-160s-160 71.633-160 160z" />
<glyph unicode="&#xe93d;" glyph-name="Collection" d="M266.667 746.667c0 64.801 52.532 117.333 117.333 117.333h256c64.802 0 117.333-52.532 117.333-117.333v-57.75c49.25-13.929 85.333-59.209 85.333-112.916v-57.749c49.25-13.931 85.333-59.209 85.333-112.917v-256c0-64.802-52.531-117.333-117.333-117.333h-597.333c-64.801 0-117.333 52.531-117.333 117.333v256c0 53.709 36.085 98.987 85.333 112.917v57.749c0 53.708 36.085 98.988 85.333 112.916v57.75zM330.667 693.333h362.667v53.333c0 29.455-23.876 53.333-53.333 53.333h-256c-29.455 0-53.333-23.878-53.333-53.333v-53.333zM245.333 522.667h533.333v53.333c0 29.455-23.876 53.333-53.333 53.333h-426.667c-29.455 0-53.333-23.878-53.333-53.333v-53.333zM213.333 458.667c-29.455 0-53.333-23.876-53.333-53.333v-256c0-29.457 23.878-53.333 53.333-53.333h597.333c29.457 0 53.333 23.876 53.333 53.333v256c0 29.457-23.876 53.333-53.333 53.333h-597.333z" />
<glyph unicode="&#xe93e;" glyph-name="Color-swatch" d="M96 746.667v-512c0-111.932 90.737-202.667 202.667-202.667h512c64.802 0 117.333 52.531 117.333 117.333v170.667c0 64.802-52.531 117.333-117.333 117.333h-22.72l16.064 16.064c45.824 45.824 45.824 120.114 0 165.935l-120.678 120.68c-45.82 45.821-120.111 45.821-165.935 0l-16.064-16.065v22.72c0 64.801-52.531 117.333-117.333 117.333h-170.667c-64.801 0-117.333-52.532-117.333-117.333zM446.613 96l277.333 277.333h86.72c29.457 0 53.333-23.876 53.333-53.333v-170.667c0-29.457-23.876-53.333-53.333-53.333h-364.053zM501.333 241.229v392.209l61.321 61.32c20.826 20.828 54.596 20.828 75.426 0l120.678-120.68c20.826-20.828 20.826-54.598 0-75.424l-257.425-257.425zM396.687 136.585c-25.091-25.075-59.745-40.585-98.021-40.585-76.584 0-138.667 62.084-138.667 138.667v512c0 29.455 23.878 53.333 53.333 53.333h170.667c29.455 0 53.333-23.878 53.333-53.333v-512c0-38.255-15.491-72.892-40.542-97.98-0.024-0.026-0.048-0.047-0.072-0.073-0.011-0.009-0.021-0.021-0.032-0.030zM266.667 234.667c0-17.673 14.327-32 32-32h0.427c17.673 0 32 14.327 32 32s-14.327 32-32 32h-0.427c-17.673 0-32-14.327-32-32z" />
<glyph unicode="&#xe93f;" glyph-name="Credit-card" d="M96 618.667c0 88.366 71.634 160 160 160h512c88.367 0 160-71.634 160-160v-341.333c0-88.367-71.633-160-160-160h-512c-88.366 0-160 71.633-160 160v341.333zM160 501.333v-224c0-53.018 42.981-96 96-96h512c53.018 0 96 42.982 96 96v224h-704zM864 565.333v53.333c0 53.019-42.982 96-96 96h-512c-53.019 0-96-42.981-96-96v-53.333h704zM266.667 320c0-17.673 14.327-32 32-32h42.667c17.673 0 32 14.327 32 32s-14.327 32-32 32h-42.667c-17.673 0-32-14.327-32-32zM480 320c0-17.673 14.327-32 32-32h42.667c17.673 0 32 14.327 32 32s-14.327 32-32 32h-42.667c-17.673 0-32-14.327-32-32z" />
<glyph unicode="&#xe940;" glyph-name="Cube-transparent" d="M497.69 860.622c9.007 4.504 19.614 4.504 28.621 0l85.333-42.667c15.808-7.904 22.217-27.125 14.31-42.932-7.902-15.807-27.123-22.214-42.931-14.311l-71.023 35.511-71.023-35.511c-15.807-7.904-35.028-1.496-42.932 14.311s-1.496 35.029 14.311 42.932l85.334 42.667zM284.622 718.311c7.904-15.807 1.496-35.029-14.311-42.932l-28.090-14.045 28.090-14.045c15.807-7.904 22.214-27.125 14.311-42.932s-27.125-22.214-42.932-14.311l-39.023 19.511v-54.889c0-17.673-14.327-32-32-32s-32 14.327-32 32v106.667c0 12.121 6.848 23.201 17.689 28.622l85.333 42.667c15.807 7.904 35.029 1.496 42.932-14.311zM739.379 718.311c7.902 15.807 27.123 22.214 42.931 14.311l85.333-42.667c10.842-5.42 17.69-16.501 17.69-28.622v-106.667c0-17.673-14.327-32-32-32s-32 14.327-32 32v54.889l-39.023-19.511c-15.808-7.904-35.029-1.496-42.931 14.311-7.906 15.807-1.498 35.029 14.31 42.932l28.087 14.045-28.087 14.045c-15.808 7.904-22.217 27.125-14.31 42.932zM398.045 547.644c7.904 15.807 27.125 22.214 42.932 14.311l71.023-35.512 71.023 35.512c15.808 7.904 35.029 1.496 42.931-14.311 7.906-15.808 1.498-35.030-14.31-42.932l-67.644-33.822v-86.891c0-17.673-14.327-32-32-32s-32 14.327-32 32v86.891l-67.644 33.822c-15.807 7.902-22.214 27.123-14.311 42.932zM170.667 373.333c17.673 0 32-14.327 32-32v-86.891l67.644-33.822c15.807-7.902 22.214-27.123 14.311-42.931s-27.125-22.217-42.932-14.31l-85.333 42.667c-10.841 5.419-17.689 16.499-17.689 28.621v106.667c0 17.673 14.327 32 32 32zM853.333 373.333c17.673 0 32-14.327 32-32v-106.667c0-12.122-6.848-23.202-17.69-28.621l-85.333-42.667c-15.808-7.906-35.029-1.498-42.931 14.31-7.906 15.808-1.498 35.029 14.31 42.931l67.644 33.822v86.891c0 17.673 14.327 32 32 32zM512 202.667c17.673 0 32-14.327 32-32v-54.891l39.023 19.511c15.808 7.906 35.029 1.498 42.931-14.31 7.906-15.808 1.498-35.029-14.31-42.931l-85.333-42.667c-9.007-4.506-19.614-4.506-28.621 0l-85.334 42.667c-15.807 7.902-22.214 27.123-14.311 42.931s27.125 22.217 42.932 14.31l39.023-19.511v54.891c0 17.673 14.327 32 32 32z" />
<glyph unicode="&#xe941;" glyph-name="Cube" d="M497.69 860.622c9.007 4.504 19.614 4.504 28.621 0l341.333-170.667c10.842-5.42 17.69-16.501 17.69-28.622v-426.667c0-12.122-6.848-23.202-17.69-28.621l-341.333-170.667c-9.007-4.506-19.614-4.506-28.621 0l-341.334 170.667c-10.841 5.419-17.689 16.499-17.689 28.621v426.667c0 12.121 6.848 23.201 17.689 28.622l341.334 170.667zM202.667 609.556v-355.113l277.333-138.667v355.115l-277.333 138.665zM544 115.776l277.333 138.667v355.113l-277.333-138.665v-355.115zM512 526.443l269.777 134.891-269.777 134.889-269.779-134.889 269.779-134.891z" />
<glyph unicode="&#xe942;" glyph-name="Currency-Bangladeshi" d="M512 800c-194.404 0-352-157.596-352-352 0-194.402 157.596-352 352-352 194.402 0 352 157.598 352 352 0 194.404-157.598 352-352 352zM96 448c0 229.751 186.249 416 416 416s416-186.249 416-416c0-229.751-186.249-416-416-416s-416 186.249-416 416zM352 661.333c0 17.673 14.327 32 32 32 64.802 0 117.333-52.532 117.333-117.333v-53.333h138.667c17.673 0 32-14.327 32-32s-14.327-32-32-32h-138.667v-138.667c0-29.457 23.876-53.333 53.333-53.333s53.333 23.876 53.333 53.333v42.667c0 17.673 14.327 32 32 32s32-14.327 32-32v-42.667c0-64.802-52.531-117.333-117.333-117.333s-117.333 52.531-117.333 117.333v138.667h-53.333c-17.673 0-32 14.327-32 32s14.327 32 32 32h53.333v53.333c0 29.455-23.878 53.333-53.333 53.333-17.673 0-32 14.327-32 32z" />
<glyph unicode="&#xe943;" glyph-name="Currency-Dollar" d="M512 800c-194.404 0-352-157.596-352-352 0-194.402 157.596-352 352-352 194.402 0 352 157.598 352 352 0 194.404-157.598 352-352 352zM96 448c0 229.751 186.249 416 416 416s416-186.249 416-416c0-229.751-186.249-416-416-416s-416 186.249-416 416zM512 693.333c17.673 0 32-14.327 32-32v-12.97c41.694-6.074 79.253-23.971 103.044-51.392 11.584-13.348 10.15-33.559-3.196-45.142-13.35-11.582-33.562-10.151-45.141 3.198-10.428 12.016-29.606 23.106-54.707 28.392v-105.716c28.599-4.156 54.921-13.845 76.262-28.070 28.881-19.26 51.738-49.374 51.738-86.967s-22.857-67.708-51.738-86.967c-21.342-14.225-47.663-23.915-76.262-28.070v-12.962c0-17.673-14.327-32-32-32s-32 14.327-32 32v12.971c-41.694 6.076-79.252 23.97-103.045 51.392-11.583 13.346-10.151 33.557 3.197 45.141 13.349 11.58 33.559 10.15 45.142-3.2 10.426-12.015 29.605-23.104 54.705-28.39v105.715c-28.599 4.156-54.918 13.845-76.26 28.070-28.884 19.26-51.74 49.374-51.74 86.967s22.855 67.709 51.74 86.965c21.341 14.228 47.661 23.917 76.26 28.074v12.96c0 17.673 14.327 32 32 32zM480 583.407c-16.166-3.405-30.080-9.24-40.759-16.36-17.442-11.628-23.241-24.178-23.241-33.714s5.798-22.084 23.241-33.715c10.679-7.117 24.593-12.954 40.759-16.358v100.148zM544 412.74v-100.147c16.166 3.405 30.080 9.242 40.759 16.358 17.442 11.631 23.241 24.179 23.241 33.715s-5.798 22.084-23.241 33.715c-10.679 7.117-24.593 12.954-40.759 16.358z" />
<glyph unicode="&#xe944;" glyph-name="Currency-Euro" d="M512 800c-194.404 0-352-157.596-352-352 0-194.402 157.596-352 352-352 194.402 0 352 157.598 352 352 0 194.404-157.598 352-352 352zM96 448c0 229.751 186.249 416 416 416s416-186.249 416-416c0-229.751-186.249-416-416-416s-416 186.249-416 416zM512 629.333c-17.911 0-41.724-11.374-63.070-46.948-6.929-11.551-12.834-24.476-17.647-38.385h80.717c17.673 0 32-14.327 32-32s-14.327-32-32-32h-94.418c-1.048-10.513-1.582-21.218-1.582-32s0.534-21.487 1.582-32h94.418c17.673 0 32-14.327 32-32s-14.327-32-32-32h-80.717c4.813-13.909 10.718-26.833 17.647-38.387 21.346-35.571 45.158-46.946 63.070-46.946s41.724 11.375 63.070 46.946c9.092 15.155 28.749 20.070 43.904 10.978s20.070-28.749 10.974-43.904c-28.642-47.74-70.345-78.020-117.948-78.020s-89.307 30.281-117.949 78.020c-12.954 21.589-22.789 45.811-29.678 71.313h-23.039c-17.673 0-32 14.327-32 32s14.327 32 32 32h11.988c-0.884 10.667-1.321 21.359-1.321 32s0.437 21.333 1.321 32h-11.988c-17.673 0-32 14.327-32 32s14.327 32 32 32h23.039c6.889 25.504 16.724 49.724 29.678 71.313 28.643 47.738 70.346 78.020 117.949 78.020s89.306-30.282 117.948-78.020c9.097-15.155 4.181-34.811-10.974-43.904s-34.812-4.178-43.904 10.976c-21.346 35.574-45.158 46.948-63.070 46.948z" />
<glyph unicode="&#xe945;" glyph-name="Currency-Pound" d="M512 800c-194.404 0-352-157.596-352-352 0-194.402 157.596-352 352-352 194.402 0 352 157.598 352 352 0 194.404-157.598 352-352 352zM96 448c0 229.751 186.249 416 416 416s416-186.249 416-416c0-229.751-186.249-416-416-416s-416 186.249-416 416zM437.333 576c0 64.801 52.531 117.333 117.333 117.333s117.333-52.532 117.333-117.333c0-17.673-14.327-32-32-32s-32 14.327-32 32c0 29.455-23.876 53.333-53.333 53.333s-53.333-23.878-53.333-53.333v-96h53.333c17.673 0 32-14.327 32-32s-14.327-32-32-32h-53.333v-53.333c0-19.204-4.612-37.333-12.796-53.333h151.462c17.673 0 32-14.327 32-32s-14.327-32-32-32h-256c-17.673 0-32 14.327-32 32s14.327 32 32 32c29.455 0 53.333 23.876 53.333 53.333v53.333h-53.333c-17.673 0-32 14.327-32 32s14.327 32 32 32h53.333v96z" />
<glyph unicode="&#xe946;" glyph-name="Currency-Rupee" d="M512 800c-194.404 0-352-157.596-352-352 0-194.402 157.596-352 352-352 194.402 0 352 157.598 352 352 0 194.404-157.598 352-352 352zM96 448c0 229.751 186.249 416 416 416s416-186.249 416-416c0-229.751-186.249-416-416-416s-416 186.249-416 416zM352 618.667c0 17.673 14.327 32 32 32h256c17.673 0 32-14.327 32-32s-14.327-32-32-32h-85.321c13.973-18.605 23.987-40.356 28.787-64h56.533c17.673 0 32-14.327 32-32s-14.327-32-32-32h-56.533c-12.762-62.861-62.374-112.341-125.308-124.902l76.467-76.471c12.497-12.497 12.497-32.755 0-45.252s-32.755-12.497-45.252 0l-128.001 128c-9.152 9.152-11.89 22.916-6.937 34.871 4.953 11.959 16.621 19.755 29.564 19.755h42.667c41.801 0 77.359 26.714 90.539 64h-133.205c-17.673 0-32 14.327-32 32s14.327 32 32 32h133.205c-13.18 37.286-48.738 64-90.539 64h-42.667c-17.673 0-32 14.327-32 32z" />
<glyph unicode="&#xe947;" glyph-name="Currency-Yen" d="M512 800c-194.404 0-352-157.596-352-352 0-194.402 157.596-352 352-352 194.402 0 352 157.598 352 352 0 194.404-157.598 352-352 352zM96 448c0 229.751 186.249 416 416 416s416-186.249 416-416c0-229.751-186.249-416-416-416s-416 186.249-416 416zM367.536 646.106c15.154 9.093 34.811 4.179 43.904-10.976l93.076-155.13h14.967l93.077 155.13c9.092 15.155 28.749 20.069 43.904 10.976s20.066-28.749 10.974-43.904l-73.323-122.203h45.884c17.673 0 32-14.327 32-32s-14.327-32-32-32h-84.284l-11.716-19.529v-44.471h96c17.673 0 32-14.327 32-32s-14.327-32-32-32h-96v-53.333c0-17.673-14.327-32-32-32s-32 14.327-32 32v53.333h-96c-17.673 0-32 14.327-32 32s14.327 32 32 32h96v44.471l-11.716 19.529h-84.284c-17.673 0-32 14.327-32 32s14.327 32 32 32h45.884l-73.324 122.203c-9.093 15.154-4.179 34.811 10.976 43.904z" />
<glyph unicode="&#xe948;" glyph-name="Cursor-click" d="M298.416 895.399c17.071 4.574 34.618-5.556 39.192-22.627l33.129-123.639c4.574-17.071-5.556-34.618-22.627-39.192s-34.618 5.556-39.192 22.627l-33.129 123.639c-4.574 17.071 5.556 34.618 22.627 39.192zM617.818 809.815c12.493-12.497 12.493-32.758 0-45.255l-90.513-90.51c-12.497-12.497-32.755-12.497-45.252 0s-12.497 32.758 0 45.255l90.509 90.51c12.497 12.497 32.759 12.497 45.257 0zM64.598 661.583c4.574 17.071 22.121 27.201 39.192 22.627l123.639-33.129c17.071-4.574 27.202-22.121 22.627-39.192s-22.121-27.202-39.192-22.627l-123.639 33.129c-17.071 4.574-27.201 22.121-22.627 39.192zM361.373 598.627c8.791 8.791 21.879 11.695 33.563 7.446l469.332-170.668c12.471-4.531 20.851-16.294 21.060-29.564 0.213-13.269-7.791-25.289-20.109-30.221l-168.277-67.307 179.017-179.021c12.497-12.497 12.497-32.755 0-45.252-12.493-12.497-32.755-12.497-45.252 0l-179.017 179.017-67.311-168.273c-4.928-12.322-16.951-20.322-30.221-20.113s-25.028 8.589-29.564 21.060l-170.668 469.333c-4.249 11.684-1.345 24.772 7.446 33.563zM437.508 522.492l118.583-326.101 54.199 135.492c3.251 8.132 9.694 14.575 17.826 17.83l135.497 54.195-326.106 118.583zM285.951 477.952c12.497-12.497 12.497-32.759 0-45.257l-90.51-90.509c-12.497-12.497-32.758-12.497-45.255 0s-12.497 32.755 0 45.252l90.51 90.513c12.497 12.497 32.758 12.497 45.255 0z" />
<glyph unicode="&#xe949;" glyph-name="Database" d="M284.952 753.391c56.453 28.227 136.682 46.609 227.048 46.609 90.368 0 170.594-18.382 227.046-46.609 58.368-29.184 82.287-63.58 82.287-92.058s-23.919-62.874-82.287-92.058c-56.452-28.227-136.678-46.609-227.046-46.609-90.366 0-170.595 18.382-227.048 46.609-58.368 29.184-82.285 63.58-82.285 92.058s23.918 62.874 82.285 92.058zM821.333 545.825v-97.825c0-28.476-23.919-62.874-82.287-92.058-56.452-28.228-136.678-46.609-227.046-46.609-90.366 0-170.595 18.381-227.048 46.609-58.368 29.184-82.285 63.582-82.285 92.058v97.825c16.075-12.82 34.31-24.114 53.664-33.791 67.085-33.545 157.522-53.367 255.67-53.367 98.146 0 188.587 19.823 255.671 53.367 19.354 9.677 37.589 20.971 53.662 33.791zM885.333 661.333c0 65.779-52.493 116.716-117.662 149.301-67.085 33.542-157.525 53.365-255.671 53.365s-188.585-19.823-255.67-53.365c-65.171-32.585-117.664-83.523-117.664-149.301v-426.667c0-65.779 52.492-116.715 117.664-149.299 67.085-33.545 157.522-53.367 255.67-53.367 98.146 0 188.587 19.823 255.671 53.367 65.169 32.585 117.662 83.52 117.662 149.299v426.667zM821.333 332.493v-97.826c0-28.476-23.919-62.874-82.287-92.058-56.452-28.228-136.678-46.609-227.046-46.609-90.366 0-170.595 18.381-227.048 46.609-58.368 29.184-82.285 63.582-82.285 92.058v97.826c16.075-12.821 34.31-24.115 53.664-33.792 67.085-33.545 157.522-53.367 255.67-53.367 98.146 0 188.587 19.823 255.671 53.367 19.354 9.677 37.589 20.971 53.662 33.792z" />
<glyph unicode="&#xe94a;" glyph-name="Desktop-computer" d="M96 746.667v-426.667c0-64.802 52.532-117.333 117.333-117.333h161.682l-19.91-79.642-36.399-36.399c-9.152-9.152-11.89-22.916-6.937-34.871 4.953-11.959 16.621-19.755 29.564-19.755h341.333c12.941 0 24.61 7.795 29.564 19.755 4.954 11.955 2.214 25.719-6.938 34.871l-36.399 36.399-19.908 79.642h161.681c64.802 0 117.333 52.531 117.333 117.333v426.667c0 64.801-52.531 117.333-117.333 117.333h-597.333c-64.801 0-117.333-52.532-117.333-117.333zM160 373.333h704v-53.333c0-29.457-23.876-53.333-53.333-53.333h-201.95c-0.461 0.009-0.922 0.009-1.387 0h-190.661c-0.464 0.009-0.926 0.009-1.387 0h-201.949c-29.455 0-53.333 23.876-53.333 53.333v53.333zM864 437.333h-704v309.333c0 29.455 23.878 53.333 53.333 53.333h597.333c29.457 0 53.333-23.878 53.333-53.333v-309.333zM583.014 202.667l25.941-103.761c0.247-0.986 0.538-1.954 0.875-2.906h-195.66c0.336 0.951 0.628 1.92 0.875 2.906l25.941 103.761h142.029z" />
<glyph unicode="&#xe94b;" glyph-name="Device-mobile" d="M224 746.667c0 64.801 52.532 117.333 117.333 117.333h341.333c64.802 0 117.333-52.532 117.333-117.333v-597.333c0-64.802-52.531-117.333-117.333-117.333h-341.333c-64.801 0-117.333 52.531-117.333 117.333v597.333zM341.333 800c-29.455 0-53.333-23.878-53.333-53.333v-597.333c0-29.457 23.878-53.333 53.333-53.333h341.333c29.457 0 53.333 23.876 53.333 53.333v597.333c0 29.455-23.876 53.333-53.333 53.333h-341.333zM480 192c0 17.673 14.327 32 32 32h0.427c17.673 0 32-14.327 32-32s-14.327-32-32-32h-0.427c-17.673 0-32 14.327-32 32z" />
<glyph unicode="&#xe94c;" glyph-name="Device-tablet" d="M181.333 746.667c0 64.801 52.532 117.333 117.333 117.333h426.667c64.802 0 117.333-52.532 117.333-117.333v-597.333c0-64.802-52.531-117.333-117.333-117.333h-426.667c-64.801 0-117.333 52.531-117.333 117.333v597.333zM298.667 800c-29.455 0-53.333-23.878-53.333-53.333v-597.333c0-29.457 23.878-53.333 53.333-53.333h426.667c29.457 0 53.333 23.876 53.333 53.333v597.333c0 29.455-23.876 53.333-53.333 53.333h-426.667zM480 192c0 17.673 14.327 32 32 32h0.427c17.673 0 32-14.327 32-32s-14.327-32-32-32h-0.427c-17.673 0-32 14.327-32 32z" />
<glyph unicode="&#xe94d;" glyph-name="Document-add" d="M298.667 800c-29.455 0-53.333-23.878-53.333-53.333v-597.333c0-29.457 23.878-53.333 53.333-53.333h426.667c29.457 0 53.333 23.876 53.333 53.333v408.994c0 2.829-1.122 5.542-3.123 7.542l-231.006 231.007c-2.001 2-4.715 3.124-7.543 3.124h-238.327zM181.333 746.667c0 64.801 52.532 117.333 117.333 117.333h238.327c19.802 0 38.793-7.866 52.796-21.869l231.006-231.007c14.003-14.003 21.871-32.995 21.871-52.797v-408.994c0-64.802-52.531-117.333-117.333-117.333h-426.667c-64.801 0-117.333 52.531-117.333 117.333v597.333zM512 565.333c17.673 0 32-14.327 32-32v-96h96c17.673 0 32-14.327 32-32s-14.327-32-32-32h-96v-96c0-17.673-14.327-32-32-32s-32 14.327-32 32v96h-96c-17.673 0-32 14.327-32 32s14.327 32 32 32h96v96c0 17.673 14.327 32 32 32z" />
<glyph unicode="&#xe94e;" glyph-name="Document-download" d="M298.667 800c-29.455 0-53.333-23.878-53.333-53.333v-597.333c0-29.457 23.878-53.333 53.333-53.333h426.667c29.457 0 53.333 23.876 53.333 53.333v408.994c0 2.829-1.122 5.542-3.123 7.542l-231.006 231.007c-2.001 2-4.715 3.124-7.543 3.124h-238.327zM181.333 746.667c0 64.801 52.532 117.333 117.333 117.333h238.327c19.802 0 38.793-7.866 52.796-21.869l231.006-231.007c14.003-14.003 21.871-32.995 21.871-52.797v-408.994c0-64.802-52.531-117.333-117.333-117.333h-426.667c-64.801 0-117.333 52.531-117.333 117.333v597.333zM512 565.333c17.673 0 32-14.327 32-32v-178.743l73.374 73.37c12.497 12.497 32.755 12.497 45.252 0s12.497-32.755 0-45.252l-128-128c-12.497-12.497-32.755-12.497-45.252 0l-128.001 128c-12.497 12.497-12.497 32.755 0 45.252s32.758 12.497 45.255 0l73.373-73.37v178.743c0 17.673 14.327 32 32 32z" />
<glyph unicode="&#xe94f;" glyph-name="Document-duplicate" d="M426.667 800c-29.455 0-53.333-23.878-53.333-53.333v-426.667c0-29.457 23.878-53.333 53.333-53.333h341.333c29.457 0 53.333 23.876 53.333 53.333v280.994c0 2.829-1.122 5.542-3.123 7.542l-188.339 188.34c-2.001 2-4.715 3.124-7.543 3.124h-195.661zM309.333 746.667c0 64.801 52.532 117.333 117.333 117.333h195.661c19.802 0 38.793-7.866 52.796-21.869l188.339-188.34c14.003-14.003 21.871-32.995 21.871-52.797v-280.994c0-64.802-52.531-117.333-117.333-117.333h-53.333v-53.333c0-64.802-52.531-117.333-117.333-117.333h-341.333c-64.801 0-117.333 52.531-117.333 117.333v426.667c0 64.801 52.532 117.333 117.333 117.333h53.333v53.333zM309.333 629.333h-53.333c-29.455 0-53.333-23.878-53.333-53.333v-426.667c0-29.457 23.878-53.333 53.333-53.333h341.333c29.457 0 53.333 23.876 53.333 53.333v53.333h-224c-64.801 0-117.333 52.531-117.333 117.333v309.333z" />
<glyph unicode="&#xe950;" glyph-name="Document-remove" d="M298.667 800c-29.455 0-53.333-23.878-53.333-53.333v-597.333c0-29.457 23.878-53.333 53.333-53.333h426.667c29.457 0 53.333 23.876 53.333 53.333v408.994c0 2.829-1.122 5.542-3.123 7.542l-231.006 231.007c-2.001 2-4.715 3.124-7.543 3.124h-238.327zM181.333 746.667c0 64.801 52.532 117.333 117.333 117.333h238.327c19.802 0 38.793-7.866 52.796-21.869l231.006-231.007c14.003-14.003 21.871-32.995 21.871-52.797v-408.994c0-64.802-52.531-117.333-117.333-117.333h-426.667c-64.801 0-117.333 52.531-117.333 117.333v597.333zM352 405.333c0 17.673 14.327 32 32 32h256c17.673 0 32-14.327 32-32s-14.327-32-32-32h-256c-17.673 0-32 14.327-32 32z" />
<glyph unicode="&#xe951;" glyph-name="Document-report" d="M298.667 800c-29.455 0-53.333-23.878-53.333-53.333v-597.333c0-29.457 23.878-53.333 53.333-53.333h426.667c29.457 0 53.333 23.876 53.333 53.333v408.994c0 2.829-1.122 5.542-3.123 7.542l-231.006 231.007c-2.001 2-4.715 3.124-7.543 3.124h-238.327zM181.333 746.667c0 64.801 52.532 117.333 117.333 117.333h238.327c19.802 0 38.793-7.866 52.796-21.869l231.006-231.007c14.003-14.003 21.871-32.995 21.871-52.797v-408.994c0-64.802-52.531-117.333-117.333-117.333h-426.667c-64.801 0-117.333 52.531-117.333 117.333v597.333zM640 522.667c17.673 0 32-14.327 32-32v-256c0-17.673-14.327-32-32-32s-32 14.327-32 32v256c0 17.673 14.327 32 32 32zM512 437.333c17.673 0 32-14.327 32-32v-170.667c0-17.673-14.327-32-32-32s-32 14.327-32 32v170.667c0 17.673 14.327 32 32 32zM384 352c17.673 0 32-14.327 32-32v-85.333c0-17.673-14.327-32-32-32s-32 14.327-32 32v85.333c0 17.673 14.327 32 32 32z" />
<glyph unicode="&#xe952;" glyph-name="Document-search" d="M298.667 800c-29.455 0-53.333-23.878-53.333-53.333v-469.333c0-17.673-14.327-32-32-32s-32 14.327-32 32v469.333c0 64.801 52.532 117.333 117.333 117.333h238.327c19.802 0 38.793-7.866 52.796-21.869l231.006-231.007c14.003-14.003 21.871-32.995 21.871-52.797v-408.994c0-64.802-52.531-117.333-117.333-117.333h-298.667c-17.673 0-32 14.327-32 32s14.327 32 32 32h298.667c29.457 0 53.333 23.876 53.333 53.333v408.994c0 2.829-1.122 5.542-3.123 7.542l-231.006 231.007c-2.001 2-4.715 3.124-7.543 3.124h-238.327zM512 458.667c-53.018 0-96-42.982-96-96 0-26.517 10.709-50.475 28.117-67.883s41.365-28.117 67.883-28.117c53.018 0 96 42.982 96 96s-42.982 96-96 96zM352 362.667c0 88.367 71.634 160 160 160s160-71.633 160-160-71.633-160-160-160c-32.597 0-62.946 9.771-88.233 26.513l-187.806-187.806c-12.497-12.497-32.758-12.497-45.255 0s-12.497 32.755 0 45.252l187.806 187.806c-16.742 25.289-26.512 55.637-26.512 88.235z" />
<glyph unicode="&#xe953;" glyph-name="Document-text" d="M298.667 800c-29.455 0-53.333-23.878-53.333-53.333v-597.333c0-29.457 23.878-53.333 53.333-53.333h426.667c29.457 0 53.333 23.876 53.333 53.333v408.994c0 2.829-1.122 5.542-3.123 7.542l-231.006 231.007c-2.001 2-4.715 3.124-7.543 3.124h-238.327zM181.333 746.667c0 64.801 52.532 117.333 117.333 117.333h238.327c19.802 0 38.793-7.866 52.796-21.869l231.006-231.007c14.003-14.003 21.871-32.995 21.871-52.797v-408.994c0-64.802-52.531-117.333-117.333-117.333h-426.667c-64.801 0-117.333 52.531-117.333 117.333v597.333zM352 448c0 17.673 14.327 32 32 32h256c17.673 0 32-14.327 32-32s-14.327-32-32-32h-256c-17.673 0-32 14.327-32 32zM352 277.333c0 17.673 14.327 32 32 32h256c17.673 0 32-14.327 32-32s-14.327-32-32-32h-256c-17.673 0-32 14.327-32 32z" />
<glyph unicode="&#xe954;" glyph-name="Document" d="M298.667 800c-29.455 0-53.333-23.878-53.333-53.333v-597.333c0-29.457 23.878-53.333 53.333-53.333h426.667c29.457 0 53.333 23.876 53.333 53.333v408.994c0 2.829-1.122 5.542-3.123 7.542l-231.006 231.007c-2.001 2-4.715 3.124-7.543 3.124h-238.327zM181.333 746.667c0 64.801 52.532 117.333 117.333 117.333h238.327c19.802 0 38.793-7.866 52.796-21.869l231.006-231.007c14.003-14.003 21.871-32.995 21.871-52.797v-408.994c0-64.802-52.531-117.333-117.333-117.333h-426.667c-64.801 0-117.333 52.531-117.333 117.333v597.333z" />
<glyph unicode="&#xe955;" glyph-name="Dots-circle-horizontal" d="M512 800c-194.404 0-352-157.596-352-352 0-194.402 157.596-352 352-352 194.402 0 352 157.598 352 352 0 194.404-157.598 352-352 352zM96 448c0 229.751 186.249 416 416 416s416-186.249 416-416c0-229.751-186.249-416-416-416s-416 186.249-416 416zM309.333 448c0 17.673 14.327 32 32 32h0.427c17.673 0 32-14.327 32-32s-14.327-32-32-32h-0.427c-17.673 0-32 14.327-32 32zM480 448c0 17.673 14.327 32 32 32h0.427c17.673 0 32-14.327 32-32s-14.327-32-32-32h-0.427c-17.673 0-32 14.327-32 32zM650.667 448c0 17.673 14.327 32 32 32h0.427c17.673 0 32-14.327 32-32s-14.327-32-32-32h-0.427c-17.673 0-32 14.327-32 32z" />
<glyph unicode="&#xe956;" glyph-name="Dots-horizontal" d="M138.667 448c0 41.237 33.429 74.667 74.667 74.667s74.667-33.429 74.667-74.667c0-41.237-33.429-74.667-74.667-74.667s-74.667 33.429-74.667 74.667zM437.333 448c0 41.237 33.429 74.667 74.667 74.667s74.667-33.429 74.667-74.667c0-41.237-33.429-74.667-74.667-74.667s-74.667 33.429-74.667 74.667zM736 448c0 41.237 33.429 74.667 74.667 74.667s74.667-33.429 74.667-74.667c0-41.237-33.429-74.667-74.667-74.667s-74.667 33.429-74.667 74.667z" />
<glyph unicode="&#xe957;" glyph-name="Dots-vertical" d="M512 821.333c41.237 0 74.667-33.429 74.667-74.667s-33.429-74.667-74.667-74.667c-41.237 0-74.667 33.429-74.667 74.667s33.429 74.667 74.667 74.667zM512 522.667c41.237 0 74.667-33.429 74.667-74.667s-33.429-74.667-74.667-74.667c-41.237 0-74.667 33.429-74.667 74.667s33.429 74.667 74.667 74.667zM512 224c41.237 0 74.667-33.429 74.667-74.667s-33.429-74.667-74.667-74.667c-41.237 0-74.667 33.429-74.667 74.667s33.429 74.667 74.667 74.667z" />
<glyph unicode="&#xe959;" glyph-name="Download" d="M202.667 234.667c0-53.018 42.981-96 96-96h426.667c53.018 0 96 42.982 96 96v42.667c0 17.673 14.327 32 32 32s32-14.327 32-32v-42.667c0-88.367-71.633-160-160-160h-426.667c-88.366 0-160 71.633-160 160v42.667c0 17.673 14.327 32 32 32s32-14.327 32-32v-42.667zM318.706 470.626c12.497 12.497 32.758 12.497 45.255 0l116.039-116.036v434.743c0 17.673 14.327 32 32 32s32-14.327 32-32v-434.743l116.041 116.036c12.497 12.497 32.755 12.497 45.252 0s12.497-32.755 0-45.252l-170.667-170.667c-12.497-12.497-32.755-12.497-45.252 0l-170.668 170.667c-12.497 12.497-12.497 32.755 0 45.252z" />
<glyph unicode="&#xe95a;" glyph-name="Drag" d="M256 618.667c0-23.564-19.103-42.667-42.667-42.667s-42.667 19.103-42.667 42.667c0 23.564 19.103 42.667 42.667 42.667s42.667-19.103 42.667-42.667zM455.113 618.667c0-23.564-19.102-42.667-42.668-42.667-23.564 0-42.667 19.103-42.667 42.667s19.102 42.667 42.667 42.667c23.566 0 42.668-19.103 42.668-42.667zM654.221 618.667c0-23.564-19.102-42.667-42.667-42.667s-42.667 19.103-42.667 42.667c0 23.564 19.102 42.667 42.667 42.667s42.667-19.103 42.667-42.667zM853.333 618.667c0-23.564-19.102-42.667-42.667-42.667s-42.667 19.103-42.667 42.667c0 23.564 19.102 42.667 42.667 42.667s42.667-19.103 42.667-42.667zM256 448c0-23.565-19.103-42.667-42.667-42.667s-42.667 19.102-42.667 42.667c0 23.565 19.103 42.667 42.667 42.667s42.667-19.102 42.667-42.667zM455.113 448c0-23.565-19.102-42.667-42.668-42.667-23.564 0-42.667 19.102-42.667 42.667s19.102 42.667 42.667 42.667c23.566 0 42.668-19.102 42.668-42.667zM654.221 448c0-23.565-19.102-42.667-42.667-42.667s-42.667 19.102-42.667 42.667c0 23.565 19.102 42.667 42.667 42.667s42.667-19.102 42.667-42.667zM853.333 448c0-23.565-19.102-42.667-42.667-42.667s-42.667 19.102-42.667 42.667c0 23.565 19.102 42.667 42.667 42.667s42.667-19.102 42.667-42.667zM256 277.333c0-23.565-19.103-42.667-42.667-42.667s-42.667 19.102-42.667 42.667c0 23.565 19.103 42.667 42.667 42.667s42.667-19.102 42.667-42.667zM455.113 277.333c0-23.565-19.102-42.667-42.668-42.667-23.564 0-42.667 19.102-42.667 42.667s19.102 42.667 42.667 42.667c23.566 0 42.668-19.102 42.668-42.667zM654.221 277.333c0-23.565-19.102-42.667-42.667-42.667s-42.667 19.102-42.667 42.667c0 23.565 19.102 42.667 42.667 42.667s42.667-19.102 42.667-42.667zM853.333 277.333c0-23.565-19.102-42.667-42.667-42.667s-42.667 19.102-42.667 42.667c0 23.565 19.102 42.667 42.667 42.667s42.667-19.102 42.667-42.667z" />
<glyph unicode="&#xe95b;" glyph-name="Duplicate" d="M138.667 704c0 64.801 52.532 117.333 117.333 117.333h341.333c64.802 0 117.333-52.532 117.333-117.333v-53.333h53.333c64.802 0 117.333-52.532 117.333-117.333v-341.333c0-64.802-52.531-117.333-117.333-117.333h-341.333c-64.801 0-117.333 52.531-117.333 117.333v53.333h-53.333c-64.801 0-117.333 52.531-117.333 117.333v341.333zM373.333 192c0-29.457 23.878-53.333 53.333-53.333h341.333c29.457 0 53.333 23.876 53.333 53.333v341.333c0 29.455-23.876 53.333-53.333 53.333h-341.333c-29.455 0-53.333-23.878-53.333-53.333v-341.333zM650.667 650.667v53.333c0 29.455-23.876 53.333-53.333 53.333h-341.333c-29.455 0-53.333-23.878-53.333-53.333v-341.333c0-29.457 23.878-53.333 53.333-53.333h53.333v224c0 64.801 52.532 117.333 117.333 117.333h224z" />
<glyph unicode="&#xe95c;" glyph-name="Emoji-happy" d="M512 800c194.402 0 352-157.596 352-352 0-194.402-157.598-352-352-352-194.404 0-352 157.598-352 352 0 194.404 157.596 352 352 352zM928 448c0 229.751-186.249 416-416 416s-416-186.249-416-416c0-229.751 186.249-416 416-416s416 186.249 416 416zM672 533.333c0 17.673-14.327 32-32 32h-0.427c-17.673 0-32-14.327-32-32s14.327-32 32-32h0.427c17.673 0 32 14.327 32 32zM416 533.333c0 17.673-14.327 32-32 32h-0.427c-17.673 0-32-14.327-32-32s14.327-32 32-32h0.427c17.673 0 32 14.327 32 32zM655.309 349.948c-12.497 12.497-32.759 12.497-45.257 0-54.153-54.153-141.952-54.153-196.105 0-12.497 12.497-32.758 12.497-45.255 0s-12.497-32.759 0-45.257c79.145-79.142 207.469-79.142 286.616 0 12.497 12.497 12.497 32.759 0 45.257z" />
<glyph unicode="&#xe95d;" glyph-name="Emoji-sad" d="M512 800c194.402 0 352-157.596 352-352 0-194.402-157.598-352-352-352-194.404 0-352 157.598-352 352 0 194.404 157.596 352 352 352zM928 448c0 229.751-186.249 416-416 416s-416-186.249-416-416c0-229.751 186.249-416 416-416s416 186.249 416 416zM672 533.333c0 17.673-14.327 32-32 32h-0.427c-17.673 0-32-14.327-32-32s14.327-32 32-32h0.427c17.673 0 32 14.327 32 32zM416 533.333c0 17.673-14.327 32-32 32h-0.427c-17.673 0-32-14.327-32-32s14.327-32 32-32h0.427c17.673 0 32 14.327 32 32zM413.945 247.381c54.151 54.153 141.95 54.153 196.103 0 12.497-12.497 32.759-12.497 45.257 0s12.497 32.759 0 45.257c-79.147 79.147-207.467 79.147-286.614 0-12.497-12.497-12.497-32.759 0-45.257s32.758-12.497 45.255 0z" />
<glyph unicode="&#xe95e;" glyph-name="Exclamation-circle" d="M512 800c-194.404 0-352-157.596-352-352 0-194.402 157.596-352 352-352 194.402 0 352 157.598 352 352 0 194.404-157.598 352-352 352zM96 448c0 229.751 186.249 416 416 416s416-186.249 416-416c0-229.751-186.249-416-416-416s-416 186.249-416 416zM512 650.667c17.673 0 32-14.327 32-32v-170.667c0-17.673-14.327-32-32-32s-32 14.327-32 32v170.667c0 17.673 14.327 32 32 32zM480 277.333c0 17.673 14.327 32 32 32h0.427c17.673 0 32-14.327 32-32s-14.327-32-32-32h-0.427c-17.673 0-32 14.327-32 32z" />
<glyph unicode="&#xe95f;" glyph-name="Exclamation" d="M410.383 805.333c45.16 78.222 158.065 78.222 203.227 0l295.603-512c45.163-78.221-11.29-176-101.615-176h-591.205c-90.323 0-146.775 97.779-101.614 176l295.603 512zM558.187 773.333c-20.531 35.555-71.851 35.555-92.378 0l-295.603-512c-20.528-35.554 5.132-80 46.188-80h591.205c41.058 0 66.718 44.446 46.191 80l-295.603 512zM511.996 608c17.673 0 32-14.327 32-32v-85.333c0-17.673-14.327-32-32-32s-32 14.327-32 32v85.333c0 17.673 14.327 32 32 32zM479.996 320c0 17.673 14.327 32 32 32h0.427c17.673 0 32-14.327 32-32s-14.327-32-32-32h-0.427c-17.673 0-32 14.327-32 32z" />
<glyph unicode="&#xe960;" glyph-name="External-link" d="M565.333 789.333c0 17.673 14.327 32 32 32h256c17.673 0 32-14.327 32-32v-256c0-17.673-14.327-32-32-32s-32 14.327-32 32v178.745l-372.041-372.038c-12.497-12.497-32.757-12.497-45.254 0s-12.497 32.755 0 45.252l372.038 372.041h-178.743c-17.673 0-32 14.327-32 32zM256 672c-29.455 0-53.333-23.878-53.333-53.333v-426.667c0-29.457 23.878-53.333 53.333-53.333h426.667c29.457 0 53.333 23.876 53.333 53.333v170.667c0 17.673 14.327 32 32 32s32-14.327 32-32v-170.667c0-64.802-52.531-117.333-117.333-117.333h-426.667c-64.801 0-117.333 52.531-117.333 117.333v426.667c0 64.801 52.532 117.333 117.333 117.333h170.667c17.673 0 32-14.327 32-32s-14.327-32-32-32h-170.667z" />
<glyph unicode="&#xe961;" glyph-name="Eye-off" d="M105.373 854.627c12.497 12.497 32.758 12.497 45.255 0l135.409-135.409c66.721 37.843 143.869 59.448 225.981 59.448 205.427 0 379.23-135.022 437.666-321.079 1.958-6.242 1.958-12.937 0-19.179-28.425-90.492-84.092-168.841-157.355-225.481l126.298-126.302c12.497-12.497 12.497-32.755 0-45.252s-32.755-12.497-45.252 0l-768.001 767.999c-12.497 12.497-12.497 32.758 0 45.255zM333.28 671.975l90.487-90.487c25.287 16.742 55.636 26.512 88.233 26.512 88.367 0 160-71.634 160-160 0-32.597-9.771-62.946-26.513-88.235l101.154-101.154c63.689 47.164 112.666 113.020 138.833 189.389-53.167 155.174-200.333 266.667-373.457 266.667-64.375 0-125.095-15.392-178.737-42.692zM598.652 406.605c5.999 12.531 9.348 26.564 9.348 41.395 0 53.018-42.982 96-96 96-14.831 0-28.864-3.351-41.395-9.35l128.047-128.045zM190.892 602.746c14.092-10.665 16.871-30.735 6.207-44.827-24.973-33-44.865-70.026-58.535-109.919 53.169-155.174 200.333-266.667 373.458-266.667 25.323 0 50.061 2.381 74.010 6.925 17.365 3.29 34.112-8.115 37.402-25.481 3.294-17.361-8.111-34.108-25.476-37.402-27.861-5.282-56.593-8.043-85.935-8.043-205.425 0-379.229 135.023-437.666 321.079-1.961 6.242-1.961 12.937 0 19.179 15.921 50.692 40.394 97.57 71.708 138.948 10.665 14.093 30.735 16.872 44.827 6.207z" />
<glyph unicode="&#xe962;" glyph-name="Eye" d="M138.563 448c53.169-155.174 200.333-266.667 373.458-266.667 173.12 0 320.286 111.492 373.453 266.667-53.167 155.174-200.333 266.667-373.457 266.667-173.121 0-320.285-111.492-373.454-266.667zM74.356 457.591c58.438 186.055 232.24 321.075 437.661 321.075 205.427 0 379.23-135.022 437.666-321.079 1.958-6.242 1.958-12.937 0-19.179-58.441-186.057-232.243-321.075-437.662-321.075-205.425 0-379.229 135.023-437.666 321.079-1.961 6.242-1.961 12.937 0 19.179zM512 544c-53.018 0-96-42.982-96-96s42.982-96 96-96c53.018 0 96 42.982 96 96s-42.982 96-96 96zM352 448c0 88.366 71.634 160 160 160s160-71.634 160-160c0-88.367-71.633-160-160-160s-160 71.633-160 160z" />
<glyph unicode="&#xe963;" glyph-name="Fast-forward" d="M181.333 618.667c0 61.529 70.244 96.65 119.467 59.733l221.867-166.4v106.667c0 61.529 70.242 96.65 119.467 59.733l227.554-170.667c39.825-29.867 39.825-89.6 0-119.467l-227.554-170.667c-49.225-36.919-119.467-1.796-119.467 59.733v106.667l-221.867-166.4c-49.223-36.919-119.467-1.796-119.467 59.733v341.333zM262.4 627.2c-7.032 5.274-17.067 0.256-17.067-8.533v-341.333c0-8.789 10.035-13.807 17.067-8.533l227.554 170.667c5.692 4.267 5.692 12.8 0 17.067l-227.554 170.667zM603.733 627.2c-7.031 5.274-17.067 0.256-17.067-8.533v-341.333c0-8.789 10.035-13.807 17.067-8.533l227.554 170.667c5.692 4.267 5.692 12.8 0 17.067l-227.554 170.667z" />
<glyph unicode="&#xe964;" glyph-name="file-question-02" d="M374.097 906.667h275.806c34.679 0 62.656 0 85.308-1.85 23.322-1.906 43.806-5.932 62.763-15.589 30.106-15.34 54.583-39.817 69.922-69.923 9.655-18.953 13.683-39.439 15.586-62.762 1.852-22.652 1.852-50.625 1.852-85.306v-116.57c0-17.673-14.327-32-32-32s-32 14.327-32 32v115.2c0 36.371-0.026 61.725-1.638 81.464-1.583 19.366-4.531 30.491-8.823 38.919-9.203 18.063-23.893 32.75-41.954 41.953-8.427 4.294-19.554 7.244-38.921 8.826-19.738 1.613-45.090 1.638-81.463 1.638h-273.067c-36.371 0-61.725-0.025-81.464-1.638-19.366-1.583-30.491-4.532-38.919-8.826-18.063-9.204-32.75-23.89-41.953-41.953-4.294-8.428-7.244-19.553-8.826-38.919-1.613-19.739-1.638-45.093-1.638-81.464v-443.733c0-36.373 0.025-61.726 1.638-81.463 1.583-19.366 4.532-30.494 8.826-38.921 9.204-18.061 23.89-32.747 41.953-41.954 8.428-4.292 19.553-7.241 38.919-8.823 19.739-1.613 45.093-1.638 81.464-1.638h221.867c17.673 0 32-14.327 32-32s-14.327-32-32-32h-223.237c-34.681 0-62.653 0-85.306 1.852-23.323 1.903-43.809 5.931-62.762 15.586-30.106 15.343-54.583 39.817-69.923 69.922-9.657 18.957-13.683 39.441-15.589 62.763-1.85 22.652-1.85 50.628-1.85 85.308v446.473c0 34.681 0 62.654 1.85 85.306 1.906 23.323 5.932 43.809 15.589 62.762 15.34 30.106 39.817 54.583 69.923 69.923 18.953 9.657 39.439 13.683 62.762 15.589 22.652 1.85 50.625 1.85 85.306 1.85zM309.333 661.333c0 17.673 14.327 32 32 32h341.333c17.673 0 32-14.327 32-32s-14.327-32-32-32h-341.333c-17.673 0-32 14.327-32 32zM309.333 490.667c0 17.673 14.327 32 32 32h256c17.673 0 32-14.327 32-32s-14.327-32-32-32h-256c-17.673 0-32 14.327-32 32zM805.299 351.078c-14.878 2.551-30.182-0.243-43.2-7.893-13.013-7.65-22.903-19.657-27.913-33.899-5.867-16.674-24.132-25.434-40.806-19.567-16.67 5.862-25.434 24.132-19.567 40.802 10.027 28.501 29.815 52.531 55.859 67.84 26.048 15.309 56.67 20.902 86.447 15.795s56.785-20.587 76.241-43.699c19.456-23.113 30.106-52.365 30.059-82.577l-32 0.047h32c0-0.017 0-0.030 0-0.047-0.021-48.939-36.305-81.254-62.212-98.526-13.931-9.284-27.635-16.115-37.73-20.599-5.090-2.266-9.382-3.981-12.471-5.158-1.549-0.593-2.803-1.050-3.716-1.374l-1.109-0.388-0.354-0.119-0.124-0.043-0.051-0.017c-0.009-0.004-0.038-0.013-9.724 29.043l9.724-29.043c-16.764-5.589-34.927 3.46-40.516 20.224-5.585 16.755 3.46 34.863 20.198 40.465l0.516 0.179c0.491 0.175 1.297 0.469 2.372 0.879 2.159 0.819 5.363 2.099 9.263 3.836 7.893 3.507 18.172 8.67 28.224 15.369 22.046 14.699 33.711 30.332 33.711 45.321v0.047c0.026 15.1-5.295 29.717-15.019 41.267s-23.219 19.285-38.101 21.837zM309.333 320c0 17.673 14.327 32 32 32h85.333c17.673 0 32-14.327 32-32s-14.327-32-32-32h-85.333c-17.673 0-32 14.327-32 32zM763.729 64c0 17.673 14.327 32 32 32h0.427c17.673 0 32-14.327 32-32s-14.327-32-32-32h-0.427c-17.673 0-32 14.327-32 32z" />
<glyph unicode="&#xe965;" glyph-name="Film" d="M96 746.667c0 41.237 33.429 74.667 74.667 74.667h682.667c41.237 0 74.667-33.429 74.667-74.667v-597.333c0-41.237-33.429-74.667-74.667-74.667h-682.667c-41.237 0-74.667 33.429-74.667 74.667v597.333zM170.667 757.333c-5.891 0-10.667-4.776-10.667-10.667v-96h106.667v106.667h-96zM330.667 757.333v-277.333h362.667v277.333h-362.667zM757.333 757.333v-106.667h106.667v96c0 5.891-4.774 10.667-10.667 10.667h-96zM864 586.667h-106.667v-106.667h106.667v106.667zM864 416h-106.667v-106.667h106.667v106.667zM864 245.333h-106.667v-106.667h96c5.892 0 10.667 4.774 10.667 10.667v96zM693.333 138.667v277.333h-362.667v-277.333h362.667zM266.667 138.667v106.667h-106.667v-96c0-5.892 4.776-10.667 10.667-10.667h96zM160 309.333h106.667v106.667h-106.667v-106.667zM160 480h106.667v106.667h-106.667v-106.667z" />
<glyph unicode="&#xe966;" glyph-name="Filter" d="M96 789.333c0 41.237 33.429 74.667 74.667 74.667h682.667c41.237 0 74.667-33.429 74.667-74.667v-110.327c0-19.803-7.868-38.794-21.871-52.797l-273.673-273.672c-2.001-2.001-3.123-4.715-3.123-7.543v-110.327c0-8.486-3.371-16.627-9.374-22.626l-170.667-170.667c-9.152-9.152-22.915-11.891-34.872-6.938s-19.754 16.623-19.754 29.564v280.994c0 2.829-1.124 5.542-3.124 7.543l-273.673 273.672c-14.003 14.003-21.869 32.995-21.869 52.797v110.327zM170.667 800c-5.891 0-10.667-4.776-10.667-10.667v-110.327c0-2.829 1.124-5.542 3.124-7.542l273.672-273.674c14.003-14.003 21.871-32.994 21.871-52.796v-203.738l106.667 106.667v97.071c0 19.802 7.868 38.793 21.871 52.796l273.673 273.674c2.001 2 3.123 4.713 3.123 7.542v110.327c0 5.891-4.774 10.667-10.667 10.667h-682.667z" />
<glyph unicode="&#xe967;" glyph-name="Finger-print" d="M325.307 814.035c54.945 31.784 118.742 49.965 186.689 49.965 206.187 0 373.333-167.147 373.333-373.333 0-108.514-15.151-213.542-43.477-313.058-4.838-16.998-22.537-26.854-39.535-22.016s-26.859 22.541-22.020 39.539c26.718 93.871 41.033 193.007 41.033 295.535 0 170.84-138.492 309.333-309.333 309.333-56.397 0-109.176-15.063-154.642-41.364-15.298-8.849-34.873-3.622-43.723 11.676s-3.622 34.873 11.676 43.723zM232.351 689.033c15.298-8.849 20.526-28.425 11.676-43.722-26.301-45.466-41.364-98.247-41.364-154.644 0-71.706-16.478-139.657-45.884-200.188-7.722-15.893-26.869-22.519-42.766-14.797s-22.523 26.867-14.8 42.765c25.264 52.006 39.45 110.409 39.45 172.22 0 67.947 18.181 131.745 49.965 186.69 8.849 15.298 28.425 20.526 43.723 11.676zM309.326 490.667c0 111.93 90.737 202.667 202.665 202.667 111.932 0 202.667-90.737 202.667-202.667 0-44.847-3.051-89.028-8.964-132.331-2.394-17.51-18.526-29.769-36.036-27.375s-29.769 18.526-27.375 36.036c5.521 40.444 8.375 81.728 8.375 123.669 0 76.584-62.080 138.667-138.667 138.667-76.582 0-138.665-62.083-138.665-138.667 0-123.183-35.252-237.713-96.16-334.537-0.647-1.028-1.279-2.061-1.895-3.098-9.024-15.198-28.659-20.198-43.854-11.174s-20.198 28.659-11.173 43.853c0.895 1.506 1.811 3.008 2.749 4.497v0c54.675 86.916 86.333 189.679 86.333 300.459zM511.991 522.667c17.673 0 32-14.327 32-32 0-156.271-44.838-302.165-122.367-425.412-9.41-14.959-29.166-19.456-44.125-10.048-14.959 9.412-19.458 29.167-10.048 44.126 71.293 113.34 112.539 247.471 112.539 391.334 0 17.673 14.327 32 32 32zM655.996 265.459c17.003-4.813 26.889-22.502 22.076-39.505-16.695-58.999-38.827-115.738-65.818-169.617-7.915-15.799-27.145-22.191-42.944-14.276-15.799 7.919-22.191 27.145-14.276 42.944 25.207 50.317 45.871 103.292 61.457 158.374 4.813 17.007 22.498 26.889 39.505 22.080z" />
<glyph unicode="&#xe968;" glyph-name="Fire" d="M491.337 856.932c-94.565-76.083-127.232-181.973-136.329-266.875-14.635 12.072-25.889 24.489-34.31 35.451-7.679 9.996-12.953 18.72-16.223 24.743-1.632 3.006-2.756 5.321-3.422 6.759-0.332 0.719-0.55 1.217-0.659 1.472l-0.064 0.149 0.024-0.060 0.015-0.039 0.009-0.022c0.005-0.012 0.009-0.023-29.738-11.818l29.747 11.794c-0.023 0.059-0.047 0.118-0.071 0.177-4.003 9.925-12.707 17.196-23.195 19.366-10.551 2.182-21.491-1.091-29.109-8.71-72.892-72.892-109.347-168.49-109.347-263.987s36.455-191.095 109.347-263.987c145.795-145.796 382.177-145.796 527.974 0 72.892 72.892 109.346 168.491 109.346 263.987s-36.454 191.095-109.346 263.987c-33.869 33.869-72.905 59.565-111.040 84.667-2.594 1.709-5.188 3.415-7.774 5.122-41.246 27.21-82.701 55.355-123.23 95.598-11.563 11.482-29.909 12.441-42.607 2.225zM265.571 592.374c-7.722 10.631-13.397 20.078-17.338 27.336-2.329 4.288-4.062 7.83-5.262 10.423-0.6 1.297-1.068 2.36-1.411 3.162l-0.423 1.006-0.143 0.351-0.079 0.195-0.011 0.027c-0.005 0.012-0.010 0.025 29.737 11.819l22.627-22.627c-10.073-10.072-19.305-20.665-27.698-31.691zM510.716 788.648c38.212-34.322 76.326-59.945 111.215-82.962 2.121-1.396 4.22-2.781 6.306-4.156 39.514-26.040 73.404-48.372 102.494-77.465 60.407-60.407 90.603-139.517 90.603-218.732s-30.195-158.323-90.603-218.731c-120.802-120.802-316.66-120.802-437.462 0-60.407 60.407-90.602 139.516-90.602 218.731 0 66.005 20.964 131.94 62.904 187.041 1.391-1.915 2.849-3.869 4.374-5.855 19.997-26.030 51.912-57.888 99.746-81.807 9.92-4.958 21.7-4.429 31.134 1.404 9.434 5.828 15.177 16.128 15.177 27.219 0 75.191 17.496 179.638 94.714 255.313zM510.716 788.648c-7.292 6.551-14.588 13.418-21.867 20.645l22.549 22.707 20.058-24.933c-7.351-5.914-14.255-12.066-20.74-18.42zM482.308 500.919c4.416 13.052 16.687 21.815 30.468 21.747 40.64-0.196 81.323-15.825 112.358-46.861 31.236-31.236 46.865-72.239 46.865-113.139 0-40.896-15.629-81.899-46.865-113.135-62.481-62.485-163.789-62.485-226.272 0-31.235 31.236-46.863 72.239-46.863 113.135 0 17.673 14.326 32 31.999 32h62.375l35.934 106.253zM534.669 455.974l-35.025-103.556c-4.395-13.001-16.589-21.747-30.31-21.747l-47.875-0.004c4.619-13.103 12.172-25.391 22.659-35.878 37.491-37.491 98.274-37.491 135.765 0 18.752 18.748 28.117 43.26 28.117 67.878s-9.365 49.131-28.117 67.883c-12.945 12.949-28.638 21.419-45.214 25.425z" />
<glyph unicode="&#xe969;" glyph-name="Flag" d="M213.333 800h264.077l2.59-2.588v-221.412c0-17.673 14.327-32 32-32s32 14.327 32 32v181.333h300.224l-104.845-209.689c-4.506-9.009-4.506-19.614 0-28.621l104.845-209.69h-297.634l-33.297 33.293c-5.999 6.003-14.14 9.374-22.626 9.374h-277.333c-19.205 0-37.332-4.612-53.333-12.796v407.462c0 29.455 23.878 53.333 53.333 53.333zM534.609 833.311l-21.316 21.316c-5.999 6.001-14.14 9.373-22.626 9.373h-277.333c-64.801 0-117.333-52.532-117.333-117.333v-682.667c0-17.673 14.327-32 32-32s32 14.327 32 32v170.667c0 29.457 23.878 53.333 53.333 53.333h264.077l33.297-33.293c5.999-6.003 14.14-9.374 22.626-9.374h362.667c11.089 0 21.389 5.743 27.221 15.177 5.828 9.434 6.362 21.214 1.399 31.134l-120.845 241.69 120.845 241.689c4.962 9.92 4.429 21.7-1.399 31.134-5.833 9.434-16.132 15.177-27.221 15.177h-349.41l-11.947 11.944c-0.009 0.012-0.021 0.023-0.034 0.034z" />
<glyph unicode="&#xe96a;" glyph-name="Folder-add" d="M213.333 714.667c-29.455 0-53.333-23.878-53.333-53.333v-426.667c0-29.457 23.878-53.333 53.333-53.333h597.333c29.457 0 53.333 23.876 53.333 53.333v341.333c0 29.455-23.876 53.333-53.333 53.333h-256c-8.486 0-16.627 3.372-22.626 9.373l-75.964 75.961h-242.743zM96 661.333c0 64.801 52.532 117.333 117.333 117.333h256c8.486 0 16.627-3.372 22.626-9.373l75.964-75.961h242.743c64.802 0 117.333-52.532 117.333-117.333v-341.333c0-64.802-52.531-117.333-117.333-117.333h-597.333c-64.801 0-117.333 52.531-117.333 117.333v426.667zM512 565.333c17.673 0 32-14.327 32-32v-96h96c17.673 0 32-14.327 32-32s-14.327-32-32-32h-96v-96c0-17.673-14.327-32-32-32s-32 14.327-32 32v96h-96c-17.673 0-32 14.327-32 32s14.327 32 32 32h96v96c0 17.673 14.327 32 32 32z" />
<glyph unicode="&#xe96b;" glyph-name="Folder-download" d="M213.333 714.667c-29.455 0-53.333-23.878-53.333-53.333v-426.667c0-29.457 23.878-53.333 53.333-53.333h597.333c29.457 0 53.333 23.876 53.333 53.333v341.333c0 29.455-23.876 53.333-53.333 53.333h-256c-8.486 0-16.627 3.372-22.626 9.373l-75.964 75.961h-242.743zM96 661.333c0 64.801 52.532 117.333 117.333 117.333h256c8.486 0 16.627-3.372 22.626-9.373l75.964-75.961h242.743c64.802 0 117.333-52.532 117.333-117.333v-341.333c0-64.802-52.531-117.333-117.333-117.333h-597.333c-64.801 0-117.333 52.531-117.333 117.333v426.667zM512 565.333c17.673 0 32-14.327 32-32v-178.743l73.374 73.37c12.497 12.497 32.755 12.497 45.252 0s12.497-32.755 0-45.252l-128-128c-12.497-12.497-32.755-12.497-45.252 0l-128.001 128c-12.497 12.497-12.497 32.755 0 45.252s32.758 12.497 45.255 0l73.373-73.37v178.743c0 17.673 14.327 32 32 32z" />
<glyph unicode="&#xe96c;" glyph-name="Folder-open" d="M213.333 714.667c-29.455 0-53.333-23.878-53.333-53.333v-426.667c0-29.457 23.878-53.333 53.333-53.333s53.333 23.876 53.333 53.333v213.333c0 64.802 52.532 117.333 117.333 117.333h309.333v10.667c0 29.455-23.876 53.333-53.333 53.333h-183.923l-85.332 85.333h-157.412zM384 501.333c-29.455 0-53.333-23.876-53.333-53.333v-213.333c0-19.204-4.614-37.333-12.794-53.333h492.794c29.457 0 53.333 23.876 53.333 53.333v213.333c0 29.457-23.876 53.333-53.333 53.333h-426.667zM213.333 117.333c-64.801 0-117.333 52.531-117.333 117.333v426.667c0 64.801 52.532 117.333 117.333 117.333h183.921l85.335-85.333h157.41c64.802 0 117.333-52.532 117.333-117.333v-10.667h53.333c64.802 0 117.333-52.531 117.333-117.333v-213.333c0-64.802-52.531-117.333-117.333-117.333h-597.333z" />
<glyph unicode="&#xe96d;" glyph-name="Folder-remove" d="M213.333 714.667c-29.455 0-53.333-23.878-53.333-53.333v-426.667c0-29.457 23.878-53.333 53.333-53.333h597.333c29.457 0 53.333 23.876 53.333 53.333v341.333c0 29.455-23.876 53.333-53.333 53.333h-256c-8.486 0-16.627 3.372-22.626 9.373l-75.964 75.961h-242.743zM96 661.333c0 64.801 52.532 117.333 117.333 117.333h256c8.486 0 16.627-3.372 22.626-9.373l75.964-75.961h242.743c64.802 0 117.333-52.532 117.333-117.333v-341.333c0-64.802-52.531-117.333-117.333-117.333h-597.333c-64.801 0-117.333 52.531-117.333 117.333v426.667zM352 405.333c0 17.673 14.327 32 32 32h256c17.673 0 32-14.327 32-32s-14.327-32-32-32h-256c-17.673 0-32 14.327-32 32z" />
<glyph unicode="&#xe96e;" glyph-name="Folder" d="M213.333 714.667c-29.455 0-53.333-23.878-53.333-53.333v-426.667c0-29.457 23.878-53.333 53.333-53.333h597.333c29.457 0 53.333 23.876 53.333 53.333v341.333c0 29.455-23.876 53.333-53.333 53.333h-256c-8.486 0-16.627 3.372-22.626 9.373l-75.964 75.961h-242.743zM96 661.333c0 64.801 52.532 117.333 117.333 117.333h256c8.486 0 16.627-3.372 22.626-9.373l75.964-75.961h242.743c64.802 0 117.333-52.532 117.333-117.333v-341.333c0-64.802-52.531-117.333-117.333-117.333h-597.333c-64.801 0-117.333 52.531-117.333 117.333v426.667z" />
<glyph unicode="&#xe96f;" glyph-name="Gift" d="M405.333 800c-41.237 0-74.667-33.429-74.667-74.667s33.429-74.667 74.667-74.667h74.667v74.667c0 41.237-33.429 74.667-74.667 74.667zM524.617 796.088c-24.175 40.662-68.544 67.912-119.283 67.912-76.584 0-138.667-62.083-138.667-138.667 0-27.491 8-53.114 21.799-74.667h-75.132c-64.801 0-117.333-52.532-117.333-117.333 0-53.709 36.085-98.987 85.333-112.917v-271.083c0-64.802 52.532-117.333 117.333-117.333h426.667c64.802 0 117.333 52.531 117.333 117.333v271.083c49.25 13.931 85.333 59.209 85.333 112.917 0 64.801-52.531 117.333-117.333 117.333h-108.796c8.183 16.001 12.796 34.129 12.796 53.333 0 64.801-52.531 117.333-117.333 117.333-27.465 0-52.727-9.437-72.717-25.245zM544 704v-53.333h53.333c29.457 0 53.333 23.878 53.333 53.333s-23.876 53.333-53.333 53.333c-29.457 0-53.333-23.878-53.333-53.333zM480 586.667h-266.667c-29.455 0-53.333-23.878-53.333-53.333 0-29.457 23.878-53.333 53.333-53.333h266.667v106.667zM480 416h-234.667v-266.667c0-29.457 23.878-53.333 53.333-53.333h181.333v320zM544 96v320h234.667v-266.667c0-29.457-23.876-53.333-53.333-53.333h-181.333zM544 480v106.667h266.667c29.457 0 53.333-23.878 53.333-53.333 0-29.457-23.876-53.333-53.333-53.333h-266.667z" />
</font>
</defs>
</svg>
