<svg width="161" height="41" viewBox="0 0 161 41" fill="none" xmlns="http://www.w3.org/2000/svg">
<path d="M154.202 33.7861C153.523 33.7861 152.826 33.7127 152.11 33.5659C151.394 33.419 150.733 33.1712 150.128 32.8225C149.522 32.4554 149.008 31.969 148.586 31.3633C148.164 30.7392 147.888 29.9683 147.76 29.0505H151.669C151.78 29.3809 151.972 29.6654 152.248 29.9041C152.541 30.1427 152.872 30.317 153.239 30.4272C153.624 30.5373 154.01 30.5924 154.395 30.5924C154.652 30.5924 154.909 30.574 155.166 30.5373C155.423 30.5006 155.662 30.4272 155.882 30.317C156.102 30.2069 156.276 30.0692 156.405 29.9041C156.533 29.7205 156.598 29.4911 156.598 29.2157C156.598 28.9221 156.506 28.6926 156.322 28.5274C156.139 28.3622 155.882 28.2337 155.551 28.142C155.221 28.0318 154.845 27.9309 154.423 27.8391C153.67 27.6739 152.862 27.4904 152 27.2885C151.137 27.0866 150.394 26.7929 149.77 26.4074C149.513 26.2239 149.283 26.022 149.081 25.8017C148.879 25.5815 148.714 25.3337 148.586 25.0583C148.457 24.783 148.356 24.4985 148.283 24.2048C148.209 23.8928 148.173 23.5624 148.173 23.2137C148.173 22.4244 148.338 21.7544 148.668 21.2038C149.017 20.6348 149.476 20.1759 150.045 19.8272C150.614 19.4784 151.247 19.2306 151.945 19.0838C152.642 18.9186 153.358 18.836 154.092 18.836C155.083 18.836 156.001 19.0012 156.845 19.3316C157.69 19.6436 158.387 20.1392 158.938 20.8183C159.489 21.4791 159.828 22.3418 159.957 23.4064H156.267C156.194 23.0026 155.946 22.6814 155.524 22.4428C155.102 22.1858 154.579 22.0573 153.955 22.0573C153.734 22.0573 153.496 22.0757 153.239 22.1124C153 22.1491 152.78 22.2133 152.578 22.3051C152.376 22.3969 152.211 22.5253 152.082 22.6905C151.954 22.8374 151.89 23.0393 151.89 23.2963C151.89 23.4982 151.945 23.6817 152.055 23.8469C152.183 24.0121 152.358 24.1498 152.578 24.2599C152.817 24.37 153.101 24.471 153.431 24.5628C154.056 24.7096 154.68 24.8473 155.304 24.9757C155.946 25.0859 156.515 25.2052 157.011 25.3337C157.616 25.4621 158.167 25.6732 158.663 25.9669C159.177 26.2606 159.59 26.6644 159.902 27.1783C160.232 27.6739 160.397 28.3255 160.397 29.1331C160.397 30.0509 160.214 30.8126 159.847 31.4183C159.479 32.0057 158.984 32.4737 158.36 32.8225C157.754 33.1712 157.084 33.419 156.35 33.5659C155.634 33.7127 154.918 33.7861 154.202 33.7861Z" fill="#12A188"/>
<path d="M142.833 33.785C141.199 33.785 139.988 33.3261 139.198 32.4084C138.427 31.4906 138.042 30.2333 138.042 28.6364V22.5242H135.867V19.0826H138.042V15.173H141.897V19.0826H146.302V22.5242H141.897V27.838C141.897 28.3152 141.952 28.7282 142.062 29.0769C142.19 29.4257 142.392 29.701 142.667 29.9029C142.961 30.0865 143.356 30.1782 143.851 30.1782C144.292 30.1782 144.659 30.114 144.953 29.9855C145.265 29.8387 145.522 29.6826 145.724 29.5175L146.935 32.491C146.55 32.803 146.118 33.06 145.641 33.2619C145.182 33.4454 144.714 33.5739 144.237 33.6473C143.76 33.7391 143.292 33.785 142.833 33.785Z" fill="#12A188"/>
<path d="M120.25 33.5934V19.0838H123.857L124.05 20.7633C124.454 20.2677 124.913 19.8822 125.427 19.6069C125.959 19.3132 126.491 19.1113 127.023 19.0012C127.574 18.8911 128.07 18.836 128.51 18.836C129.905 18.836 130.988 19.1389 131.759 19.7446C132.548 20.3503 133.108 21.1671 133.439 22.195C133.787 23.2045 133.962 24.3333 133.962 25.5815V33.5934H130.107V26.077C130.107 25.6365 130.07 25.196 129.997 24.7555C129.924 24.315 129.786 23.9112 129.584 23.5441C129.4 23.177 129.134 22.8833 128.786 22.663C128.437 22.4428 127.978 22.3326 127.409 22.3326C126.675 22.3326 126.06 22.5162 125.564 22.8833C125.069 23.2504 124.702 23.746 124.463 24.37C124.224 24.9941 124.105 25.6824 124.105 26.435V33.5934H120.25Z" fill="#12A188"/>
<path d="M111.061 33.7861C109.538 33.7861 108.244 33.4833 107.179 32.8776C106.115 32.2718 105.298 31.4183 104.729 30.317C104.16 29.1974 103.875 27.8942 103.875 26.4074C103.875 24.9023 104.169 23.5899 104.757 22.4703C105.344 21.3323 106.17 20.4421 107.234 19.7996C108.317 19.1572 109.593 18.836 111.061 18.836C112.163 18.836 113.126 19.0195 113.952 19.3866C114.797 19.7537 115.503 20.2677 116.072 20.9285C116.66 21.5892 117.091 22.3602 117.366 23.2412C117.66 24.1039 117.798 25.04 117.779 26.0495C117.779 26.3065 117.77 26.5543 117.752 26.7929C117.734 27.0315 117.697 27.2701 117.642 27.5087H107.703C107.758 28.0594 107.914 28.5641 108.171 29.023C108.428 29.4819 108.785 29.849 109.244 30.1243C109.722 30.3813 110.309 30.5098 111.006 30.5098C111.465 30.5098 111.887 30.4639 112.273 30.3721C112.658 30.262 112.989 30.0968 113.264 29.8765C113.539 29.6563 113.732 29.3993 113.842 29.1056H117.642C117.403 30.1886 116.953 31.0788 116.293 31.7763C115.65 32.4738 114.87 32.9877 113.952 33.3181C113.035 33.6301 112.071 33.7861 111.061 33.7861ZM107.785 24.8105H114.09C114.072 24.315 113.943 23.8561 113.705 23.4339C113.484 22.9934 113.145 22.6447 112.686 22.3877C112.245 22.1124 111.676 21.9747 110.979 21.9747C110.281 21.9747 109.694 22.1124 109.217 22.3877C108.758 22.663 108.409 23.0209 108.171 23.4615C107.95 23.8836 107.822 24.3333 107.785 24.8105Z" fill="#12A188"/>
<path d="M97.4917 33.5924V14.0994H101.346V33.5924H97.4917Z" fill="#12A188"/>
<path d="M86.4597 33.7854C85.7989 33.7854 85.1565 33.7028 84.5324 33.5376C83.9267 33.3541 83.3853 33.0787 82.908 32.7116C82.4308 32.3445 82.0545 31.8857 81.7792 31.335C81.5039 30.7844 81.3662 30.1419 81.3662 29.4077C81.3662 28.4166 81.5681 27.6273 81.9719 27.0399C82.3757 26.4342 82.9172 25.9753 83.5963 25.6633C84.2755 25.3513 85.0556 25.1402 85.9366 25.0301C86.836 24.9199 87.7629 24.8649 88.7174 24.8649H90.8099C90.8099 24.3326 90.7089 23.8645 90.507 23.4607C90.3234 23.0386 90.0389 22.7173 89.6535 22.4971C89.268 22.2585 88.7724 22.1392 88.1667 22.1392C87.7813 22.1392 87.405 22.1942 87.0379 22.3044C86.6892 22.3961 86.3955 22.5338 86.1569 22.7173C85.9182 22.9009 85.7622 23.1395 85.6888 23.4332H81.7792C81.8893 22.6256 82.1463 21.9373 82.5501 21.3682C82.9539 20.7809 83.4587 20.3037 84.0644 19.9366C84.6701 19.5695 85.3309 19.3033 86.0467 19.1381C86.7809 18.9546 87.5335 18.8628 88.3044 18.8628C90.4152 18.8628 91.9754 19.4685 92.9849 20.6799C93.9944 21.873 94.4992 23.5708 94.4992 25.7734V33.5927H91.0301L90.975 31.7205C90.5162 32.3629 89.9931 32.8309 89.4057 33.1246C88.8367 33.4183 88.286 33.6018 87.7537 33.6753C87.2215 33.7487 86.7901 33.7854 86.4597 33.7854ZM87.3408 30.7293C87.9832 30.7293 88.5705 30.6008 89.1028 30.3438C89.6351 30.0869 90.0573 29.7381 90.3693 29.2976C90.6814 28.8571 90.8374 28.3615 90.8374 27.8108V27.4529H88.1943C87.8088 27.4529 87.4325 27.4713 87.0654 27.508C86.7167 27.5447 86.3955 27.6181 86.1018 27.7283C85.8265 27.82 85.6062 27.976 85.441 28.1963C85.2758 28.4166 85.1932 28.7102 85.1932 29.0773C85.1932 29.4444 85.285 29.7565 85.4685 30.0134C85.6705 30.2521 85.9366 30.4356 86.267 30.5641C86.5974 30.6742 86.9553 30.7293 87.3408 30.7293Z" fill="#12A188"/>
<path d="M71.8044 33.5924V17.7612H65.8574V14.0994H81.7437V17.7612H75.7691V33.5924H71.8044Z" fill="#12A188"/>
<path d="M63.6091 33.5915C62.3977 33.5915 61.379 33.4447 60.553 33.151C59.7454 32.8573 59.1305 32.3617 58.7083 31.6643C58.3045 30.9484 58.1026 29.9756 58.1026 28.7458V22.5235H55.9551V19.0819H58.1026V15.1998H61.9572V19.0819H65.1234V22.5235H61.9572V28.1952C61.9572 28.8009 62.0673 29.2781 62.2875 29.6268C62.5078 29.9756 63.0034 30.15 63.7743 30.15H64.9857V33.5915H63.6091Z" fill="#12A188"/>
<path d="M48.862 33.7861C48.1829 33.7861 47.4854 33.7127 46.7696 33.5659C46.0537 33.419 45.3929 33.1712 44.7872 32.8225C44.1815 32.4554 43.6676 31.969 43.2454 31.3633C42.8232 30.7392 42.5479 29.9683 42.4194 29.0505H46.329C46.4392 29.3809 46.6319 29.6654 46.9072 29.9041C47.2009 30.1427 47.5313 30.317 47.8984 30.4272C48.2839 30.5373 48.6693 30.5924 49.0548 30.5924C49.3117 30.5924 49.5687 30.574 49.8257 30.5373C50.0826 30.5006 50.3213 30.4272 50.5415 30.317C50.7618 30.2069 50.9361 30.0692 51.0646 29.9041C51.1931 29.7205 51.2574 29.4911 51.2574 29.2157C51.2574 28.9221 51.1656 28.6926 50.982 28.5274C50.7985 28.3622 50.5415 28.2337 50.2111 28.142C49.8807 28.0318 49.5045 27.9309 49.0823 27.8391C48.3297 27.6739 47.5221 27.4904 46.6594 27.2885C45.7968 27.0866 45.0534 26.7929 44.4293 26.4074C44.1723 26.2239 43.9429 26.022 43.741 25.8017C43.5391 25.5815 43.3739 25.3337 43.2454 25.0583C43.1169 24.783 43.016 24.4985 42.9426 24.2048C42.8691 23.8928 42.8324 23.5624 42.8324 23.2137C42.8324 22.4244 42.9976 21.7544 43.328 21.2038C43.6767 20.6348 44.1356 20.1759 44.7046 19.8272C45.2736 19.4784 45.9069 19.2306 46.6044 19.0838C47.3019 18.9186 48.0177 18.836 48.7519 18.836C49.7431 18.836 50.6608 19.0012 51.5052 19.3316C52.3495 19.6436 53.047 20.1392 53.5976 20.8183C54.1483 21.4791 54.4878 22.3418 54.6163 23.4064H50.927C50.8535 23.0026 50.6058 22.6814 50.1836 22.4428C49.7614 22.1858 49.2383 22.0573 48.6142 22.0573C48.394 22.0573 48.1554 22.0757 47.8984 22.1124C47.6598 22.1491 47.4395 22.2133 47.2376 22.3051C47.0357 22.3969 46.8705 22.5253 46.742 22.6905C46.6135 22.8374 46.5493 23.0393 46.5493 23.2963C46.5493 23.4982 46.6044 23.6817 46.7145 23.8469C46.843 24.0121 47.0174 24.1498 47.2376 24.2599C47.4762 24.37 47.7607 24.471 48.0911 24.5628C48.7152 24.7096 49.3393 24.8473 49.9633 24.9757C50.6058 25.0859 51.1748 25.2052 51.6703 25.3337C52.2761 25.4621 52.8267 25.6732 53.3223 25.9669C53.8362 26.2606 54.2492 26.6644 54.5613 27.1783C54.8916 27.6739 55.0568 28.3255 55.0568 29.1331C55.0568 30.0509 54.8733 30.8126 54.5062 31.4183C54.1391 32.0057 53.6435 32.4737 53.0194 32.8225C52.4137 33.1712 51.7438 33.419 51.0096 33.5659C50.2937 33.7127 49.5779 33.7861 48.862 33.7861Z" fill="#12A188"/>
<path d="M33.9892 33.7861C32.4657 33.7861 31.1717 33.4833 30.1071 32.8776C29.0425 32.2718 28.2257 31.4183 27.6567 30.317C27.0877 29.1974 26.8032 27.8942 26.8032 26.4074C26.8032 24.9023 27.0969 23.5899 27.6843 22.4703C28.2716 21.3323 29.0976 20.4421 30.1622 19.7996C31.2451 19.1572 32.5208 18.836 33.9892 18.836C35.0905 18.836 36.0541 19.0195 36.8801 19.3866C37.7244 19.7537 38.4311 20.2677 39.0001 20.9285C39.5875 21.5892 40.0188 22.3602 40.2941 23.2412C40.5878 24.1039 40.7255 25.04 40.7071 26.0495C40.7071 26.3065 40.6979 26.5543 40.6796 26.7929C40.6612 27.0315 40.6245 27.2701 40.5695 27.5087H30.6302C30.6853 28.0594 30.8413 28.5641 31.0983 29.023C31.3553 29.4819 31.7132 29.849 32.1721 30.1243C32.6493 30.3813 33.2366 30.5098 33.9341 30.5098C34.393 30.5098 34.8152 30.4639 35.2006 30.3721C35.5861 30.262 35.9165 30.0968 36.1918 29.8765C36.4671 29.6563 36.6598 29.3993 36.77 29.1056H40.5695C40.3308 30.1886 39.8812 31.0788 39.2204 31.7763C38.5779 32.4738 37.7979 32.9877 36.8801 33.3181C35.9624 33.6301 34.9987 33.7861 33.9892 33.7861ZM30.7128 24.8105H37.0178C36.9994 24.315 36.8709 23.8561 36.6323 23.4339C36.4121 22.9934 36.0725 22.6447 35.6136 22.3877C35.1731 22.1124 34.6041 21.9747 33.9066 21.9747C33.2091 21.9747 32.6218 22.1124 32.1445 22.3877C31.6856 22.663 31.3369 23.0209 31.0983 23.4615C30.878 23.8836 30.7495 24.3333 30.7128 24.8105Z" fill="#12A188"/>
<path d="M8.8637 8.61066V32.9087L0.804731 20.4593C0.374157 19.8379 0.106327 19.1183 0.0257528 18.3666C-0.0549612 17.6147 0.0547721 16.8546 0.344838 16.1562C0.344838 16.1562 1.8404 12.2346 2.87785 8.985C2.91228 8.87683 2.98025 8.78242 3.0719 8.71544C3.16356 8.64846 3.27414 8.61239 3.38766 8.61244L8.8637 8.61066Z" fill="#12A188"/>
<path d="M24.6607 20.4645L16.5269 33.0333V8.53918H22.0653C22.179 8.53925 22.2898 8.57559 22.3815 8.64291C22.4731 8.71023 22.5409 8.80502 22.5751 8.91352C23.6179 12.1827 25.1241 16.1347 25.1241 16.1347C25.4149 16.8379 25.5252 17.6026 25.445 18.3593C25.3631 19.1154 25.0934 19.8391 24.6607 20.4645Z" fill="#12A188"/>
<path d="M15.5075 37.4308C15.5071 38.0786 15.2793 38.7056 14.864 39.2027C14.4488 39.6999 13.8722 40.0356 13.2348 40.151C12.5972 40.2676 11.939 40.1559 11.3756 39.8355C10.8127 39.5181 10.3787 39.0135 10.1491 38.4095C9.92205 37.8032 9.91451 37.1366 10.1278 36.5253C10.3409 35.913 10.7624 35.3951 11.3185 35.0618C11.8752 34.73 12.5305 34.6038 13.1706 34.7053C13.8104 34.8054 14.3946 35.1272 14.8212 35.6144C15.2631 36.1164 15.507 36.7621 15.5075 37.4308Z" fill="#12A188"/>
<path d="M25.464 0.721538V5.93892C25.464 6.07802 25.4088 6.21142 25.3104 6.30978C25.212 6.40814 25.0786 6.46339 24.9395 6.46339H14.7618V33.7736C14.2989 33.4038 13.7486 33.1594 13.1639 33.0639V22.105H12.3003V33.0673C11.6847 33.1459 11.1028 33.3927 10.6185 33.7806V6.46339H0.524476C0.385377 6.46339 0.251971 6.40814 0.153613 6.30978C0.0552541 6.21142 0 6.07802 0 5.93892V0.719789C0 0.356152 0.363637 0.226781 0.699302 0.226781L12.767 0.195312L24.7577 0.228528C25.1144 0.228528 25.464 0.357901 25.464 0.721538Z" fill="#12A188"/>
</svg>
